<svg width="93" height="97" viewBox="0 0 93 97" fill="none" xmlns="http://www.w3.org/2000/svg">
<path d="M91.5531 39.9409L53.6305 77.9741C51.0634 80.5506 47.8796 82.4303 44.3853 83.4297L41.439 84.2732H41.1969C40.9548 84.2732 40.7219 84.177 40.5483 84.0027C40.3108 83.7689 40.2194 83.4205 40.3199 83.0996L41.1467 80.1517C42.1425 76.6399 44.0153 73.4399 46.5915 70.8588L84.4638 32.889C85.3957 31.9445 86.661 31.4127 87.9856 31.4036C89.3103 31.399 90.5802 31.9217 91.5211 32.8569C93.4807 34.8054 93.4945 37.9787 91.5531 39.9409ZM68.9422 92.255H14.238C8.99408 92.255 4.74144 87.996 4.72776 82.7329V7.7157V7.15179C1.86374 8.34833 0 11.1542 0 14.267V89.2842C0.00456755 93.5433 3.44414 96.9908 7.68766 97H62.3919C65.498 96.9862 68.2981 95.1111 69.4903 92.2321L68.9422 92.255ZM38.5527 82.6321C38.3197 83.4665 38.4887 84.3559 39.0095 85.0435C39.5256 85.7358 40.3341 86.1393 41.1975 86.1438C41.4487 86.1393 41.6999 86.1026 41.9374 86.0338L44.8882 85.1765C48.6841 84.09 52.1419 82.0544 54.9376 79.2578L76.6434 57.4726V82.733C76.6342 86.992 73.1901 90.4442 68.942 90.4442H14.2378C9.99884 90.4396 6.55926 86.9874 6.5547 82.733V7.71579C6.55926 3.45674 9.99884 0.00915445 14.2378 0H53.8771V14.0603C53.8953 18.897 57.8009 22.8122 62.62 22.826H76.643V38.1069L45.2619 69.6029C42.4755 72.4041 40.4428 75.8746 39.3693 79.689L38.5527 82.6321ZM21.2905 49.7242C20.788 49.7242 20.3769 50.1322 20.3769 50.6411C20.3769 51.1454 20.788 51.558 21.2905 51.558H58.5044C59.0069 51.558 59.418 51.1454 59.418 50.6411C59.418 50.1322 59.0069 49.7242 58.5044 49.7242H21.2905ZM37.954 54.0611H21.2905C20.788 54.0611 20.3769 54.4738 20.3769 54.9781C20.3769 55.4869 20.788 55.895 21.2905 55.895H37.954C38.461 55.895 38.8675 55.4869 38.8675 54.9781C38.8675 54.4738 38.461 54.0611 37.954 54.0611ZM21.2905 47.2761H45.3853C45.8878 47.2761 46.2989 46.868 46.2989 46.3591C46.2989 45.8548 45.8878 45.4422 45.3853 45.4422H21.2905C20.788 45.4422 20.3769 45.8548 20.3769 46.3591C20.3769 46.868 20.788 47.2761 21.2905 47.2761ZM17.9285 26.0776C17.924 32.1842 21.5828 37.6857 27.2013 40.0241C32.8152 42.3668 39.2832 41.0785 43.5865 36.7645C47.8894 32.4504 49.1774 25.9587 46.8479 20.3194C44.5229 14.6804 39.0415 11.0036 32.9617 11.0036C24.6664 11.0127 17.9414 17.7564 17.9285 26.0776ZM37.4196 83.3164V83.321C37.4059 83.078 37.2917 82.8488 37.109 82.6929C36.9262 82.5324 36.6841 82.4545 36.4466 82.4774C36.2274 82.4774 31.1342 82.7846 29.5172 74.9817C29.1243 72.9507 28.2107 71.7313 26.8815 71.4745C23.1314 70.7272 17.6956 78.6768 16.6496 80.2769C16.412 80.6895 16.5308 81.2213 16.9191 81.4964C17.3302 81.744 17.8646 81.6248 18.1387 81.2305C20.4638 77.6867 24.5839 72.8454 26.4933 73.2213C27.1739 73.3542 27.5393 74.4454 27.7129 75.3118C29.467 83.8712 35.1813 84.2608 36.3598 84.2608H36.5654C36.812 84.2608 37.045 84.16 37.214 83.9812C37.383 83.8024 37.4698 83.564 37.4561 83.321L37.4196 83.3164ZM47.0304 60.2472V60.2518C47.5328 60.2518 47.9439 59.8392 47.9439 59.3349C47.9439 58.826 47.5328 58.418 47.0304 58.418H21.2902C20.7878 58.418 20.3767 58.826 20.3767 59.3349C20.3767 59.8392 20.7878 60.2518 21.2902 60.2518L47.0304 60.2472ZM62.6204 21.0169H76.1184L55.8509 0.235105L55.7047 0.13883V14.0618C55.7047 17.899 58.797 21.0123 62.6204 21.0169ZM32.9617 30.1631C29.143 30.1723 25.6029 32.1711 23.6204 35.4445C26.0917 37.9339 29.4536 39.3322 32.9571 39.3322C36.4607 39.3322 39.8181 37.9339 42.2938 35.4445C40.3114 32.1757 36.7758 30.1768 32.9617 30.1631ZM29.0654 28.939C26.5302 27.2244 25.4111 24.0472 26.3063 21.1131C27.1971 18.179 29.8967 16.1756 32.9571 16.1756C36.013 16.1756 38.7127 18.179 39.6079 21.1131C40.5032 24.0472 39.3795 27.2243 36.8489 28.939C39.5668 29.8146 41.9192 31.5797 43.5225 33.9545C46.519 29.9384 47.0032 24.5653 44.765 20.0773C42.5267 15.5892 37.9543 12.7557 32.9567 12.7557C27.9549 12.7557 23.3825 15.589 21.1437 20.0773C18.91 24.5655 19.3897 29.9386 22.3862 33.9545C23.9895 31.5797 26.343 29.8147 29.0654 28.939ZM32.9617 28.3017V28.3063C30.8879 28.3063 29.0196 27.0502 28.2248 25.1293C27.43 23.2038 27.8685 20.9895 29.3348 19.5178C30.8011 18.0462 33.0073 17.6061 34.9258 18.4038C36.8397 19.2015 38.0913 21.0765 38.0913 23.158C38.0913 24.5242 37.5523 25.8353 36.5931 26.8073C35.6293 27.7747 34.3229 28.3157 32.9616 28.3157L32.9617 28.3017ZM32.9617 26.6375V26.6421C34.8756 26.6375 36.4195 25.0788 36.4195 23.1578C36.4195 22.6535 36.013 22.2409 35.5059 22.2409C35.0035 22.2409 34.5924 22.6535 34.5924 23.1578C34.6335 23.6162 34.4782 24.0747 34.1676 24.4139C33.857 24.7578 33.4184 24.9503 32.957 24.9503C32.4957 24.9503 32.0572 24.7578 31.7419 24.4139C31.4313 24.0747 31.276 23.6162 31.3171 23.1578C31.3171 22.6535 30.906 22.2409 30.4036 22.2409C29.9011 22.2409 29.49 22.6535 29.49 23.1578C29.49 25.0833 31.043 26.6467 32.9616 26.6558L32.9617 26.6375Z" fill="white"/>
</svg>
