<svg width="34" height="34" viewBox="0 0 34 34" fill="none" xmlns="http://www.w3.org/2000/svg">
<path d="M2 8.67888C2.0651 8.27664 2.10135 7.86776 2.20105 7.47465C2.39222 6.7191 2.74983 6.03903 3.29449 5.4817C4.20665 4.54867 5.10233 3.59242 6.07381 2.72491C7.17384 1.74212 8.75425 1.77447 9.87571 2.72574C10.3099 3.09398 10.7154 3.50036 11.1158 3.90675C12.1384 4.94676 13.1849 5.96604 14.1588 7.05167C15.1682 8.17628 15.1484 9.77446 14.1448 10.9132C13.484 11.6621 12.7589 12.3538 12.0626 13.0703C11.9777 13.1582 11.8895 13.242 11.8047 13.3266C12.5949 15.5708 16.7173 20.2136 20.1294 21.7438C20.2028 21.6741 20.2844 21.5995 20.3626 21.5223C21.091 20.8091 21.7931 20.0635 22.5545 19.3876C23.6949 18.3757 25.2703 18.3782 26.3852 19.4066C27.3517 20.2982 28.2614 21.2519 29.1884 22.1858C29.677 22.6776 30.1681 23.1694 30.623 23.6927C31.5697 24.7834 31.5895 26.3724 30.6889 27.5053C30.4928 27.7525 30.2777 27.9863 30.0594 28.2136C29.4158 28.8829 28.7748 29.5547 28.1164 30.209C26.9364 31.3842 25.4928 31.7782 23.8695 31.6347C21.7362 31.4456 19.7867 30.6801 17.894 29.7296C14.565 28.0577 11.6349 25.8416 9.10527 23.1022C6.73712 20.537 4.74059 17.7114 3.35464 14.4794C2.81822 13.2287 2.37409 11.9457 2.14667 10.5972C2.08322 10.2281 2.04779 9.85159 2 9.47755C2 9.21132 2 8.9451 2 8.67888ZM3.7996 9.12673C3.84656 9.54307 3.87211 9.96272 3.94379 10.3741C4.13249 11.4564 4.4868 12.4906 4.91034 13.5008C6.45285 17.1806 8.78227 20.3065 11.6102 23.0716C13.7707 25.1839 16.2196 26.8949 18.9264 28.2269C20.5678 29.0346 22.257 29.6965 24.1036 29.8449C25.0742 29.9229 25.9864 29.7512 26.7082 29.0562C27.538 28.2567 28.3397 27.4265 29.1208 26.5789C29.7199 25.9295 29.7116 25.3092 29.1002 24.6789C27.8428 23.3826 26.5665 22.1037 25.2835 20.8323C24.7982 20.3513 24.228 20.3446 23.6858 20.7643C23.5655 20.8572 23.4567 20.9667 23.3488 21.0745C22.6352 21.7894 21.9274 22.5109 21.2097 23.2217C20.726 23.701 20.1731 23.8172 19.5906 23.5261C18.9907 23.2258 18.3958 22.909 17.8297 22.5491C15.9238 21.3341 14.2841 19.8089 12.8083 18.1004C11.7371 16.8605 10.7763 15.5451 10.1081 14.0324C9.74222 13.2047 9.83533 12.6971 10.4772 12.0726C11.1504 11.4182 11.8195 10.7597 12.4803 10.0929C13.3134 9.25362 13.3109 8.68551 12.4803 7.8462C11.3465 6.70003 10.2102 5.55551 9.07396 4.41183C8.98085 4.31811 8.88692 4.22273 8.78309 4.14063C8.28046 3.74088 7.75887 3.72512 7.23976 4.09833C7.09968 4.19868 6.97361 4.3206 6.85083 4.44251C6.21554 5.0778 5.59672 5.72968 4.94742 6.34921C4.15062 7.1089 3.76828 8.02119 3.79877 9.12673H3.7996Z" fill="#1B3249"/>
</svg>
