<svg width="91" height="119" viewBox="0 0 91 119" fill="none" xmlns="http://www.w3.org/2000/svg">
<g clip-path="url(#clip0_2001_144)">
<path d="M79.3104 17.0782C79.5256 37.1113 77.0526 58.683 60.5981 72.2923C53.5024 78.159 45.0011 81.9958 36.4901 85.3025C26.7485 89.0817 16.8576 92.4738 7.02899 96.0217C5.38684 96.614 5.33093 99.1229 6.68414 99.9995C11.4238 103.173 17.0996 104.636 22.7866 104.152C24.9967 103.992 25.3197 100.199 23.1398 99.717C18.5568 98.7171 13.962 97.7501 9.3865 96.7084C8.33723 96.4669 7.13982 96.4543 6.7803 95.0874C6.54185 94.1865 7.44973 92.1823 7.67859 91.3148C8.32369 88.8904 9.07341 86.5034 9.86891 84.1328C10.7942 81.3784 6.56594 79.8601 5.64488 82.6234C4.45755 86.0658 3.45216 89.5682 2.63292 93.1159C2.16181 95.2391 1.97841 97.4651 3.64322 99.1205C5.52311 100.979 8.67897 101.165 11.1232 101.712L21.5824 104.055C21.7045 102.578 21.82 101.099 21.9421 99.6227C17.4739 99.9063 13.0419 98.7082 9.32766 96.2127C9.21567 97.5372 9.11676 98.8664 8.98516 100.184C19.4911 96.3293 30.0953 92.6952 40.4632 88.4427C49.3974 84.7977 58.2561 80.3323 65.3563 73.6069C80.5371 59.2904 83.9421 36.7613 81.2439 16.9088C81.0955 15.8175 79.2917 15.8923 79.3031 17.0162L79.3104 17.0782Z" fill="#28B468"/>
</g>
<defs>
<clipPath id="clip0_2001_144">
<rect width="58.5281" height="104.514" fill="white" transform="translate(35.1687) rotate(19.6635)"/>
</clipPath>
</defs>
</svg>
