<svg width="112" height="57" viewBox="0 0 112 57" fill="none" xmlns="http://www.w3.org/2000/svg">
<path d="M54.4549 56.7315C47.3118 56.7167 38.8653 55.7796 30.5743 53.6117C25.0489 52.1673 19.7201 50.2108 14.7263 47.4098C11.2645 45.4671 8.06568 43.1735 5.39043 40.2103C3.30625 37.9018 1.67824 35.3249 0.890529 32.285C-0.16585 28.2076 0.52354 24.3701 2.59743 20.7543C4.36835 17.6665 6.83666 15.2038 9.64453 13.0634C13.5625 10.0761 17.9161 7.88769 22.496 6.12551C28.0226 3.99879 33.7389 2.58973 39.5798 1.6675C45.7775 0.686993 52.0163 0.299588 58.2837 0.433294C67.7637 0.635568 77.063 1.99548 86.0971 4.94959C91.1869 6.61349 96.0492 8.76992 100.501 11.7823C103.344 13.7056 105.917 15.9295 107.977 18.6996C109.645 20.9417 110.85 23.3953 111.311 26.1746C111.9 29.7252 111.188 33.0427 109.456 36.1637C107.894 38.9806 105.735 41.2868 103.26 43.3129C99.6906 46.235 95.6857 48.4166 91.4533 50.2028C85.8422 52.5718 80.0001 54.1454 74.0128 55.2002C68.0118 56.2573 61.9593 56.7293 54.4537 56.7315H54.4549ZM55.94 50.3731C55.9411 50.3445 55.9434 50.3148 55.9446 50.2862C56.0635 50.2862 56.1835 50.2862 56.3024 50.2862C62.212 50.2817 68.0895 49.844 73.927 48.916C79.2478 48.0704 84.4748 46.8407 89.5441 44.9951C93.3649 43.6044 97.0336 41.9027 100.355 39.5269C102.517 37.9807 104.451 36.2048 105.841 33.9055C107.257 31.5651 107.802 29.0624 107.154 26.3666C106.647 24.257 105.519 22.4834 104.08 20.8937C102.2 18.8162 99.9535 17.206 97.5412 15.8163C93.5146 13.4976 89.2011 11.8749 84.7469 10.6064C76.2993 8.20196 67.6585 7.11517 58.8988 6.89347C51.958 6.71862 45.0504 7.13345 38.1873 8.20653C32.8048 9.04876 27.5172 10.2761 22.3908 12.1423C18.6123 13.5182 14.9824 15.1958 11.6864 17.5282C9.54278 19.0459 7.60494 20.7818 6.20444 23.0342C3.90418 26.7345 3.91561 30.452 6.22387 34.1478C7.41516 36.0562 9.01001 37.5933 10.7821 38.9532C13.9432 41.3771 17.4725 43.1267 21.1721 44.5471C29.3213 47.675 37.8123 49.2234 46.4772 49.8988C49.6234 50.1434 52.7834 50.2199 55.9377 50.3731H55.94Z" fill="#DAD9D9"/>
<path d="M36.7342 27.9583C37.5505 29.1194 38.3439 30.2542 39.143 31.3844C41.3278 34.4722 43.516 37.5577 45.702 40.6444C45.7797 40.7541 45.8575 40.8627 45.9352 40.9724C46.1101 41.2192 46.1776 41.4832 46.0461 41.7712C45.9089 42.0729 45.6334 42.0695 45.359 42.0706C43.6304 42.0798 41.9029 42.09 40.1743 42.1003C39.9811 42.1003 39.7844 42.0855 39.5935 42.1083C38.5646 42.2306 37.8214 41.7632 37.2029 40.9964C35.7715 39.2228 34.331 37.4583 32.8951 35.6882C31.8639 34.4151 30.8349 33.1397 29.8037 31.8667C29.7157 31.7581 29.6173 31.6564 29.4344 31.5855C29.4344 31.7432 29.4344 31.901 29.4344 32.0598C29.431 34.9636 29.4298 37.8674 29.4173 40.7724C29.4161 41.033 29.3727 41.3095 29.2789 41.5506C29.1326 41.9255 28.8388 42.1209 28.4089 42.122C26.5317 42.1232 24.6544 42.1438 22.7772 42.1472C22.1221 42.1483 21.5584 41.5918 21.5276 40.9347C21.5207 40.7861 21.5253 40.6364 21.5253 40.4879C21.5253 33.086 21.5253 25.6842 21.5253 18.2835C21.5253 18.0915 21.5253 17.8984 21.5253 17.6961C21.3149 17.5533 21.1137 17.4276 20.9239 17.2859C20.4346 16.9179 20.3009 16.3156 20.5787 15.7705C20.7696 15.398 21.1046 15.3248 21.483 15.326C22.8538 15.3294 24.2245 15.326 25.5953 15.326C26.4596 15.326 27.3239 15.3248 28.1883 15.326C29.0743 15.3283 29.4801 15.7271 29.4767 16.6025C29.4664 19.1783 29.4527 21.7553 29.4401 24.3311C29.4401 24.4877 29.4401 24.6454 29.4401 24.802C29.471 24.8122 29.503 24.8237 29.5339 24.834C29.6311 24.7117 29.7294 24.5905 29.8243 24.4671C31.8353 21.8421 33.8383 19.2126 35.8642 16.599C36.142 16.2413 36.5101 15.9454 36.8691 15.6631C37.2544 15.3603 37.7128 15.262 38.2124 15.27C40.0451 15.2997 41.8777 15.3065 43.7093 15.3225C43.8282 15.3225 43.9482 15.3191 44.066 15.334C44.7142 15.4117 44.952 15.9065 44.585 16.447C43.38 18.2207 42.167 19.9897 40.9563 21.7599C39.6449 23.6775 38.3336 25.5962 37.0234 27.5138C36.932 27.6486 36.8439 27.7858 36.7319 27.9572L36.7342 27.9583Z" fill="#DAD9D9"/>
<path d="M80.8963 25.2721C80.702 25.2458 80.4962 25.2184 80.2687 25.1875C80.1761 25.4252 80.0995 25.6001 80.04 25.7795C78.3674 30.7757 76.6971 35.772 75.0256 40.7683C74.7135 41.7008 74.2162 42.0642 73.2444 42.071C71.6804 42.0825 70.1165 42.0893 68.5525 42.1076C67.4241 42.1202 67.0628 41.6391 67.4229 40.5786C69.4259 34.6726 71.4301 28.7679 73.4342 22.8619C73.975 21.2689 74.5146 19.677 75.0542 18.0839C75.1102 17.9171 75.1583 17.7468 75.2189 17.548C75.0199 17.4577 74.845 17.3834 74.6747 17.3C74.2414 17.0886 73.9761 16.7526 73.9281 16.2646C73.879 15.7618 74.1716 15.3961 74.6747 15.3367C74.8221 15.3195 74.9719 15.3275 75.1217 15.3275C77.9673 15.3275 80.8129 15.3275 83.6573 15.3275C84.6554 15.3275 85.0487 15.5995 85.3734 16.5423C85.8432 17.908 86.3006 19.277 86.7647 20.6438C89.0375 27.3382 91.3104 34.0327 93.5832 40.7271C93.6358 40.8814 93.6986 41.0391 93.7124 41.1991C93.7569 41.7031 93.3397 42.1179 92.8 42.1145C91.0726 42.103 89.3439 42.087 87.6165 42.0733C86.8425 42.0665 86.2525 41.6414 86.0113 40.9031C85.1379 38.229 84.2678 35.5537 83.3967 32.8796C82.6215 30.5026 81.8464 28.1256 81.0701 25.7486C81.0244 25.6081 80.9706 25.4709 80.8986 25.2732L80.8963 25.2721Z" fill="#DAD9D9"/>
<path d="M52.3158 17.6405C52.0528 17.4599 51.8105 17.3331 51.6195 17.1514C51.3074 16.8543 51.0925 16.5126 51.2766 16.0395C51.4618 15.5618 51.8002 15.3321 52.3009 15.3309C53.5368 15.3275 54.7727 15.3286 56.0085 15.3286C57.0661 15.3286 58.1236 15.3241 59.18 15.3309C59.9814 15.3366 60.3564 15.7138 60.3564 16.5114C60.3575 24.6538 60.3575 32.7961 60.3564 40.9374C60.3564 41.8413 60.122 42.0676 59.2165 42.0744C57.385 42.0881 55.5535 42.1007 53.722 42.1167C52.5959 42.127 52.3158 41.8562 52.3158 40.7339C52.3158 33.4852 52.3158 26.2354 52.3158 18.9867C52.3158 18.5273 52.3158 18.0679 52.3158 17.6416V17.6405Z" fill="#DAD9D9"/>
</svg>
