<svg width="79" height="79" viewBox="0 0 79 79" fill="none" xmlns="http://www.w3.org/2000/svg">
<path d="M50.6283 78.22H3.82494C3.6912 78.1612 3.55746 78.097 3.41302 78.0488C1.2732 77.3427 0 75.6148 0 73.3465C0 50.5093 0 27.6773 0 4.84005C0.00534956 2.06898 2.05958 0.00404389 4.81461 0.00404389C19.7773 -0.00130567 34.7401 -0.00665523 49.7028 0.0254421C50.4838 0.0254421 51.3344 0.255473 52.0245 0.619244C53.7471 1.53402 54.496 3.06934 54.4906 5.01658C54.4799 11.1365 54.4906 17.2617 54.4906 23.3816C54.4906 23.6759 54.5174 23.9647 54.5388 24.2911H69.2126C69.2715 24.061 69.3357 23.847 69.3785 23.6277C69.7957 21.5146 70.2077 19.3962 70.6249 17.2778C70.8764 15.9939 71.1599 15.7585 72.4598 15.7532C73.7544 15.7532 75.049 15.7799 76.3436 15.7425C77.0551 15.7211 77.6382 15.8976 78.0715 16.4753V17.3901C77.6971 17.9839 77.1674 18.2033 76.4667 18.1765C75.3058 18.1337 74.1396 18.1658 72.9092 18.1658C70.7426 29.1966 68.5867 40.1846 66.4416 51.1084C67.9715 53.0985 68.3193 55.1527 67.1531 57.3032C66.0992 59.2398 64.382 60.2027 62.1887 60.0636C59.6209 59.9031 58.0374 58.3945 57.2564 55.9979H54.496C54.496 56.3349 54.496 56.6345 54.496 56.9341C54.496 62.3425 54.5013 67.7509 54.496 73.154C54.496 75.7432 53.303 77.332 50.8315 78.1077C50.762 78.1291 50.7032 78.1826 50.639 78.22H50.6283ZM2.47685 14.3195V63.926H52.0512V55.9979H43.1442C41.8443 59.0953 39.5975 60.529 36.9334 59.9994C34.3656 59.4912 32.5735 57.3728 32.5253 54.7943C32.4772 52.2907 34.2533 50.0706 36.7408 49.5142C37.9765 49.2361 39.1642 49.3912 40.2929 49.9636C41.7587 50.7019 42.6467 51.9216 43.1121 53.489H57.2617C57.6843 51.9911 58.5296 50.8249 59.883 50.0706C61.2578 49.3003 62.7183 49.22 64.2696 49.6801C64.4355 48.8028 64.5853 47.995 64.7458 47.1444H54.8972C53.5705 47.9736 52.5327 48.6262 51.42 49.3217C51.2863 50.8356 51.0081 51.3117 50.2003 51.3277C49.4032 51.3438 49.1518 50.9212 48.9217 49.327C47.7823 48.6048 46.7498 47.9522 45.712 47.2942C45.7388 47.2353 45.7709 47.1818 45.7976 47.123C45.5194 47.123 45.2413 47.123 44.9631 47.123C41.1274 47.123 37.2918 47.123 33.4562 47.123C32.4451 47.123 32.1081 46.8502 31.8566 45.8605C31.0596 42.6615 30.2625 39.4624 29.4707 36.258C28.6255 32.8343 27.7749 29.4106 26.9457 25.9869C26.705 25.0079 27.1811 24.4034 28.1761 24.3553C28.4276 24.3446 28.6844 24.3553 28.9358 24.3553C36.3021 24.3553 43.6738 24.3553 51.0402 24.3553H52.0512V14.3302H2.47685V14.3195ZM55.5392 44.6515H65.2486C66.4148 38.6921 67.581 32.7434 68.7472 26.7786H29.6098C31.1024 32.7915 32.5735 38.7349 34.0393 44.6354H44.7865C44.8026 44.5071 44.8079 44.4322 44.8186 44.3573C44.9096 43.5602 45.3108 43.1269 45.9795 43.1001C46.6482 43.0734 47.0868 43.4692 47.258 44.2556C47.2794 44.3573 47.2794 44.4589 47.3062 44.5552C47.6111 45.7963 48.7185 46.7271 49.9756 46.8074C51.2863 46.8876 52.4525 46.1601 52.9339 44.9618C53.501 43.5495 52.7467 42.0944 51.2595 41.8109C50.7139 41.7092 50.1521 41.7092 49.5904 41.6932C47.2045 41.6183 45.1664 39.8369 44.84 37.5312C44.4923 35.0865 45.91 32.7969 48.2263 32.0533C48.4617 31.9784 48.6971 31.9035 48.9111 31.8393C49.0876 30.1809 49.3658 29.7316 50.1842 29.7316C50.976 29.7316 51.2007 30.1007 51.4735 31.8553C51.7517 31.9516 52.0405 32.0426 52.3241 32.1549C54.1697 32.8825 55.5285 34.7655 55.5178 36.5951C55.5178 37.3065 55.1165 37.8041 54.4853 37.8843C53.8059 37.9699 53.303 37.574 53.1533 36.8304C53.1158 36.6539 53.1479 36.4506 53.0677 36.3062C52.7788 35.7873 52.5541 35.1774 52.1208 34.8083C51.099 33.9363 49.3658 33.9738 48.2745 34.7602C47.4078 35.3807 47.0548 36.4399 47.3436 37.5419C47.5951 38.4941 48.2852 39.0666 49.3872 39.2003C49.9435 39.2698 50.4999 39.2859 51.0562 39.334C53.4849 39.5373 55.1326 41.0619 55.4696 43.4211C55.5231 43.7956 55.5178 44.1807 55.5445 44.6461L55.5392 44.6515ZM2.4608 66.4296C2.4394 66.7131 2.41265 66.9164 2.41265 67.1143C2.41265 69.1471 2.40195 71.1746 2.41265 73.2075C2.42335 74.9193 3.32743 75.818 5.06604 75.818C19.8469 75.818 34.6224 75.818 49.4032 75.818C51.206 75.818 52.0994 74.9033 52.1047 73.0844C52.1101 71.1318 52.1047 69.1739 52.1047 67.2213C52.1047 66.9752 52.078 66.7291 52.0619 66.4296H2.4608ZM52.0512 11.8159C52.0726 11.527 52.0994 11.3023 52.0994 11.083C52.0994 9.0769 52.1101 7.07082 52.0994 5.06473C52.0887 3.34752 51.1739 2.4167 49.4674 2.4167C34.6652 2.41135 19.8576 2.41135 5.05534 2.4167C3.32208 2.4167 2.42335 3.31542 2.41265 5.03798C2.40195 7.04407 2.41265 9.05015 2.41265 11.0562C2.41265 11.3023 2.4501 11.5431 2.4715 11.8212H52.0566L52.0512 11.8159ZM37.8963 57.6723C39.5279 57.667 40.8493 56.3403 40.8386 54.7247C40.8279 53.1038 39.5012 51.7932 37.8696 51.7985C36.2326 51.8039 34.9273 53.1199 34.9326 54.7515C34.938 56.3831 36.254 57.683 37.8963 57.6723ZM62.4668 51.8574C60.862 51.8574 59.5139 53.1787 59.5139 54.7408C59.5139 56.2921 60.878 57.6242 62.4722 57.6242C64.0717 57.6242 65.4091 56.3082 65.4091 54.7354C65.4091 53.1626 64.0717 51.852 62.4668 51.8574Z" fill="#1B3249"/>
<path d="M16.878 36.9219C14.8184 36.9219 12.7642 36.9486 10.7099 36.9005C10.298 36.8898 9.78982 36.7186 9.50095 36.4351C8.91249 35.8573 9.23882 34.8463 10.0413 34.6055C10.3248 34.5199 10.6404 34.5146 10.9453 34.5146C14.9308 34.5092 18.9215 34.5146 22.9069 34.5146C23.0835 34.5146 23.2654 34.5092 23.4419 34.5253C24.1908 34.6055 24.6402 35.0763 24.6188 35.761C24.5974 36.4297 24.1159 36.9058 23.3617 36.9165C21.3288 36.9326 19.296 36.9219 17.2685 36.9219C17.1401 36.9219 17.0171 36.9219 16.8887 36.9219H16.878Z" fill="#1B3249"/>
<path d="M18.5791 41.0242C20.6119 41.0242 22.6448 41.0242 24.6723 41.0242C24.9451 41.0242 25.2393 41.0456 25.4907 41.1366C25.9989 41.3185 26.336 41.7357 26.2183 42.2439C26.1273 42.6345 25.8224 43.025 25.5068 43.2978C25.3142 43.4636 24.929 43.4369 24.6295 43.4369C20.6173 43.4422 16.6051 43.4422 12.5929 43.4369C12.4432 43.4369 12.288 43.4422 12.1382 43.4262C11.3893 43.3513 10.9399 42.8805 10.9506 42.1958C10.9613 41.5164 11.4267 41.0349 12.181 41.0189C13.5238 40.9921 14.8719 41.0082 16.2199 41.0082C17.0063 41.0082 17.7927 41.0082 18.5791 41.0082V41.0242Z" fill="#1B3249"/>
<path d="M15.2623 30.3845C13.1546 30.3845 11.0469 30.3898 8.93916 30.3845C8.10463 30.3845 7.62852 29.9565 7.60177 29.2503C7.58037 28.6191 7.98159 28.1323 8.62353 28.0413C8.87496 28.0039 9.13174 28.0146 9.38317 28.0146C13.3205 28.0146 17.2577 28.0146 21.1897 28.0146C21.4197 28.0146 21.6497 28.0093 21.8744 28.0306C22.5591 28.1055 23.0246 28.6084 23.0032 29.2343C22.9818 29.8655 22.5003 30.3631 21.8156 30.3791C20.4728 30.4059 19.1247 30.3898 17.7766 30.3898C16.9368 30.3898 16.1022 30.3898 15.2623 30.3898V30.3845Z" fill="#1B3249"/>
<path d="M15.4175 69.9336C16.0809 69.9336 16.6319 70.49 16.6105 71.1373C16.5944 71.7953 16.0274 72.3142 15.364 72.2928C14.7328 72.2714 14.2139 71.7471 14.2085 71.1266C14.1978 70.4793 14.7542 69.9283 15.4175 69.9336Z" fill="#1B3249"/>
<path d="M40.2715 71.1319C40.2608 71.8059 39.7045 72.3195 39.0251 72.2927C38.3778 72.266 37.891 71.7417 37.9017 71.0891C37.9124 70.4043 38.4527 69.9015 39.1428 69.9336C39.7847 69.9603 40.2822 70.4899 40.2715 71.1319Z" fill="#1B3249"/>
<path d="M28.4277 71.078C28.4437 71.7306 27.9623 72.2549 27.3203 72.2923C26.6409 72.3298 26.0846 71.8216 26.0685 71.1475C26.0525 70.4949 26.5339 69.9706 27.1812 69.9385C27.8713 69.9011 28.417 70.3932 28.433 71.0833L28.4277 71.078Z" fill="#1B3249"/>
<path d="M27.2562 5.93149C29.1873 5.93149 31.1132 5.93149 33.0444 5.93149C33.6489 5.93149 34.1571 6.17222 34.2587 6.74462C34.3283 7.13514 34.1571 7.63265 33.9324 7.97502C33.7933 8.18901 33.3547 8.296 33.0497 8.296C29.1659 8.3174 25.2822 8.3174 21.3984 8.296C20.6173 8.296 20.1091 7.76104 20.1305 7.0763C20.1519 6.39155 20.6601 5.93149 21.4679 5.92614C23.3991 5.91544 25.325 5.92614 27.2562 5.92614V5.93149Z" fill="#1B3249"/>
<path d="M38.4151 8.30107C37.741 8.30642 37.1954 7.76076 37.2114 7.09207C37.2275 6.45547 37.7517 5.94726 38.3937 5.93656C39.0677 5.93121 39.6134 6.47687 39.5973 7.14556C39.5813 7.79286 39.0677 8.29037 38.4151 8.29572V8.30107Z" fill="#1B3249"/>
</svg>
