<svg width="99" height="74" viewBox="0 0 99 74" fill="none" xmlns="http://www.w3.org/2000/svg">
<path d="M9.4853 59.0027V57.6125C9.4853 40.9207 9.547 24.2288 9.43799 7.53905C9.41331 3.73676 12.2189 -0.0367452 16.9519 0.000270109C28.6865 0.0907519 40.4212 0.0290598 52.1558 0.0290598C61.9755 0.0290598 71.7931 0.045511 81.6127 0.0187778C84.1366 0.0126085 86.2284 0.798155 87.7732 2.85867C88.779 4.20151 89.1739 5.72325 89.1739 7.37454C89.1739 14.6254 89.1739 21.8763 89.1739 29.1272C89.1739 38.636 89.1739 48.1448 89.1739 57.6536C89.1739 58.0567 89.1739 58.4618 89.1739 59.0006C91.019 59.0006 92.7859 58.978 94.5507 59.0129C95.1554 59.0253 95.7931 59.089 96.3546 59.2967C98.1914 59.9753 99.045 61.6719 98.502 63.6069C97.5949 66.8376 96.4019 69.9571 94.7749 72.906C94.3347 73.7039 93.7444 74.0082 92.8702 73.9959C90.7166 73.963 88.561 73.963 86.4074 73.9609C61.6731 73.9609 36.9368 73.9609 12.2025 73.9609C10.0818 73.9609 7.96113 73.9507 5.84252 73.9671C4.91074 73.9753 4.26693 73.6833 3.78973 72.7847C2.22442 69.842 1.02936 66.7594 0.149004 63.5596C-0.521548 61.1146 1.14043 59.0623 3.74242 59.0068C5.28098 58.9739 6.8216 59.0006 8.36017 59.0006C8.69545 59.0006 9.02866 59.0006 9.48735 59.0006L9.4853 59.0027ZM11.9824 59.0027H13.3009C20.9299 59.0027 28.5569 59.0273 36.186 58.978C37.4263 58.9697 38.2984 59.2782 38.8229 60.4442C39.043 60.9336 39.3865 61.3696 39.6539 61.7994H59.0053C59.2933 61.3387 59.6141 60.9275 59.8219 60.4668C60.3423 59.3132 61.1918 58.9677 62.4424 58.9759C70.1044 59.0253 77.7663 59.0006 85.4304 59.0006C85.8232 59.0006 86.2182 59.0006 86.6398 59.0006C86.6563 58.6448 86.6748 58.4433 86.6748 58.2418C86.6748 41.2785 86.681 24.3173 86.6707 7.35398C86.6707 4.35779 84.7845 2.53787 81.7588 2.53787C60.1407 2.53787 38.5206 2.53787 16.9025 2.53787C13.813 2.53787 11.9865 4.35779 11.9865 7.42595C11.9865 24.1836 11.9865 40.9412 11.9865 57.6989V58.9985L11.9824 59.0027ZM5.78081 71.4501H92.6768C94.1311 68.896 95.0978 66.2042 95.9412 63.4589C96.3731 62.0523 96.0317 61.569 94.5445 61.5156C94.3738 61.5094 94.2031 61.5156 94.0323 61.5156C83.7684 61.5156 73.5044 61.5156 63.2384 61.5156H62.1544C61.7204 62.2086 61.3255 62.807 60.9635 63.4239C60.5809 64.0758 60.0502 64.3596 59.2768 64.3575C52.6392 64.3411 46.0015 64.339 39.3639 64.3575C38.5843 64.3596 38.0701 64.0511 37.6896 63.4054C37.3111 62.7638 36.9018 62.1387 36.5295 61.5464C36.2971 61.532 36.1592 61.5176 36.0235 61.5176C25.451 61.5176 14.8785 61.5156 4.30601 61.5176C4.06741 61.5176 3.82469 61.5238 3.59021 61.5629C2.67694 61.7171 2.34578 62.1921 2.59055 63.0846C2.7983 63.8414 3.04718 64.5899 3.33309 65.3199C4.13734 67.3805 4.96833 69.4286 5.7767 71.4521L5.78081 71.4501Z" fill="#1B3249"/>
<path d="M49.3295 53.8492C38.7591 53.8492 28.1866 53.8492 17.6162 53.8492C15.8781 53.8492 15.5798 53.5572 15.5798 51.836C15.5798 37.9162 15.5798 23.9943 15.5798 10.0745C15.5798 8.41912 15.8987 8.10449 17.5565 8.10449C38.7344 8.10449 59.9103 8.10449 81.0882 8.10449C82.746 8.10449 83.0813 8.42735 83.0813 10.0663C83.0834 24.0211 83.0834 37.9758 83.0813 51.9306C83.0813 53.5017 82.7234 53.8492 81.1478 53.8492C70.5424 53.8492 59.937 53.8492 49.3316 53.8492H49.3295ZM18.1736 10.6606V51.2602H80.4834V10.6606H18.1736Z" fill="#1B3249"/>
<path d="M61.6112 14.687C63.1189 16.5851 64.5999 18.4173 66.0336 20.2887C66.2598 20.5848 66.3503 21.0413 66.3647 21.43C66.4079 22.5569 66.3853 23.6858 66.3791 24.8148C66.3689 26.9802 65.6386 28.2264 63.6558 29.3677C63.6393 29.7091 63.6023 30.1101 63.6023 30.5111C63.5982 35.4341 63.6023 40.3592 63.5982 45.2822C63.5982 47.0281 63.3102 47.3119 61.5783 47.3119C53.4042 47.3119 45.23 47.3119 37.0559 47.3119C35.3301 47.3119 35.0545 47.0363 35.0525 45.2719C35.0483 40.4168 35.0525 35.5616 35.0525 30.7064C35.0525 30.2972 35.0525 29.888 35.0525 29.3841C33.6949 28.796 32.6377 27.8172 32.4752 26.3324C32.2777 24.5434 32.3373 22.7234 32.3147 20.9179C32.3127 20.7041 32.4649 20.4593 32.6089 20.2784C34.0651 18.4256 35.5338 16.583 37.0374 14.6891H61.6133L61.6112 14.687ZM37.6359 29.7152V44.7537H43.7696C43.7696 44.3322 43.7696 43.9641 43.7696 43.598C43.7696 40.2481 43.7655 36.8982 43.7717 33.5484C43.7737 32.2981 44.1851 31.8888 45.4193 31.8847C47.9493 31.8786 50.4793 31.8806 53.0092 31.8847C54.5211 31.8847 54.879 32.2384 54.881 33.7478C54.8851 37.0628 54.881 40.3797 54.881 43.6947C54.881 44.0525 54.881 44.4124 54.881 44.7619H61.0188V29.7214C60.2413 29.2937 59.507 28.8885 58.7377 28.467C56.6623 30.1471 54.5416 30.0895 52.4847 28.43C50.0926 30.1347 48.7165 30.1286 46.1371 28.4423C45.2033 29.1394 44.1995 29.8448 42.9777 29.6371C41.8732 29.4499 40.8097 29.0078 39.6147 28.6438C39.1148 28.9153 38.4032 29.3039 37.6339 29.7234L37.6359 29.7152ZM52.3264 44.7784V34.4676H46.3449V44.7784H52.3264ZM52.2832 17.1629C52.5423 17.8436 52.7336 18.4585 53.0051 19.0363C53.5831 20.2681 53.8258 21.5431 53.7333 22.9024C53.6798 23.6838 53.6839 24.4734 53.7415 25.2549C53.832 26.4784 54.6136 27.2105 55.7017 27.1756C56.7775 27.1406 57.5159 26.3345 57.5344 25.1315C57.5509 24.0745 57.5509 23.0155 57.5242 21.9585C57.5159 21.6665 57.4439 21.3436 57.2999 21.0927C56.5368 19.7684 55.7408 18.4626 54.9633 17.1609H52.2811L52.2832 17.1629ZM43.6976 17.1424C42.9037 18.4708 42.1385 19.7211 41.4104 20.992C41.2499 21.2716 41.1409 21.6212 41.1306 21.9441C41.0956 23.034 41.0956 24.128 41.1203 25.2179C41.1471 26.3592 41.8855 27.1385 42.9242 27.1756C43.9753 27.2146 44.7796 26.5175 44.8886 25.3721C44.9626 24.5948 44.975 23.801 44.9174 23.0216C44.8104 21.5554 45.0984 20.1858 45.7155 18.8615C45.9623 18.331 46.1227 17.7613 46.3449 17.1403H43.6956L43.6976 17.1424ZM58.0199 17.1609C58.0569 17.311 58.0528 17.4261 58.1083 17.494C59.904 19.6944 60.3524 22.2422 60.0397 24.9855C60.0356 25.0184 60.0397 25.0534 60.0397 25.0883C60.1015 26.3715 60.8502 27.1838 61.965 27.1797C63.084 27.1756 63.8533 26.3551 63.8779 25.0863C63.9006 23.9244 63.882 22.7625 63.882 21.5554C62.7117 20.0748 61.529 18.5818 60.4079 17.1629H58.0178L58.0199 17.1609ZM34.7953 21.5184C34.7851 21.7076 34.7727 21.8433 34.7727 21.979C34.7707 22.9702 34.7604 23.9614 34.7727 24.9526C34.7892 26.3283 35.5029 27.1653 36.6507 27.1776C37.8416 27.19 38.5903 26.3365 38.6109 24.9115C38.6253 23.8853 38.543 22.853 38.6356 21.8371C38.6973 21.1524 38.905 20.4511 39.1992 19.826C39.6208 18.9273 40.1803 18.0924 40.7336 17.1382H38.2571C37.0991 18.6024 35.9349 20.0748 34.7933 21.5184H34.7953ZM49.4487 17.0889C49.2533 17.165 49.1711 17.1711 49.1361 17.2164C49.0559 17.3213 48.9942 17.4426 48.9345 17.5619C47.7271 19.9494 47.1738 22.4602 47.4227 25.1479C47.5338 26.3551 48.2023 27.1591 49.2739 27.1797C50.3867 27.2002 51.1477 26.3777 51.2156 25.1377C51.3452 22.7666 51.1889 20.4511 50.0123 18.3104C49.7964 17.9156 49.6339 17.4899 49.4508 17.0889H49.4487Z" fill="#1B3249"/>
</svg>
