<?xml version="1.0" encoding="UTF-8"?>
<svg xmlns="http://www.w3.org/2000/svg" version="1.1" width="44" height="44" viewBox="0 0 512 512">
  <defs>
    <style>
      .cls-1 {
        fill: #2d68ff;
      }
    </style>
  </defs>
  <!-- Generator: Adobe Illustrator 28.6.0, SVG Export Plug-In . SVG Version: 1.2.0 Build 709)  -->
  <g>
    <g id="policies">
      <path class="cls-1" d="M160.5,80h191c4.1,0,7.5-3.4,7.5-7.5s-3.4-7.5-7.5-7.5h-191c-4.1,0-7.5,3.4-7.5,7.5s3.4,7.5,7.5,7.5ZM160.5,170h191c4.1,0,7.5-3.4,7.5-7.5s-3.4-7.5-7.5-7.5h-191c-4.1,0-7.5,3.4-7.5,7.5s3.4,7.5,7.5,7.5ZM160.5,125h191c4.1,0,7.5-3.4,7.5-7.5s-3.4-7.5-7.5-7.5h-191c-4.1,0-7.5,3.4-7.5,7.5s3.4,7.5,7.5,7.5ZM505.4,96.6l-10.6-10.6c-8.8-8.8-23-8.8-31.8,0l-35,35V37.5c0-20.7-16.8-37.5-37.5-37.5H121.5c-20.7,0-37.5,16.8-37.5,37.5v389.5h-40.5c-4.1,0-7.5,3.4-7.5,7.5h0v40c0,20.7,16.8,37.5,37.5,37.5h318c.3,0,.5,0,.8,0,20-1,35.7-17.5,35.7-37.5V205.8l77.4-77.4c8.8-8.8,8.8-23,0-31.8ZM73.5,497c-12.4,0-22.5-10.1-22.5-22.5v-32.5h299v31c0,8.7,2.9,17.2,8.3,24H73.5ZM413,434.4s0,0,0,0v38.5c0,13.3-10.7,24-24,24s-24-10.7-24-24v-38.5c0-4.1-3.4-7.5-7.5-7.5h0c-.2,0-.3,0-.5,0-.2,0-.3,0-.5,0H99V37.5c0-12.4,10.1-22.5,22.5-22.5h269c12.4,0,22.5,10.1,22.5,22.5v98.5l-139,139h-113.5c-4.1,0-7.5,3.4-7.5,7.5s3.4,7.5,7.5,7.5h98.5l-29.4,29.4c-.2.2-.4.4-.6.6h0s-68.6,0-68.6,0c-4.1,0-7.5,3.4-7.5,7.5s3.4,7.5,7.5,7.5h63.1l-10,30h-53.1c-4.1,0-7.5,3.4-7.5,7.5s3.4,7.5,7.5,7.5h56c.5,0,1.1,0,1.6-.2,1.1.1,2.2,0,3.3-.3l47.7-15.9s0,0,.1,0c.4-.2.9-.4,1.3-.6,0,0,.1,0,.2-.1.2-.1.3-.2.5-.4,0,0,.1,0,.2-.1.2-.2.4-.4.6-.5l26.8-26.8h52.7c4.1,0,7.5-3.4,7.5-7.5s-3.4-7.5-7.5-7.5h-37.7l99.2-99.2v213.6ZM238.2,338.5l14.7,14.7-22,7.3,7.3-22ZM266.8,345.9l-21.2-21.2,180.2-180.2h0s19.6-19.6,19.6-19.6l21.2,21.2-199.9,199.9ZM494.8,117.8l-17.6,17.6-21.2-21.2,17.6-17.6c2.9-2.9,7.7-2.9,10.6,0h0s10.6,10.6,10.6,10.6c2.9,2.9,2.9,7.7,0,10.6h0Z"/>
    </g>
  </g>
</svg>
