<svg width="36" height="33" viewBox="0 0 36 33" fill="none" xmlns="http://www.w3.org/2000/svg">
<path d="M3.232 32.2728C2.31067 32.2728 1.542 31.9648 0.926 31.3488C0.31 30.7328 0.00133333 29.9635 0 29.0408V21.2728H14V24.2728H22V21.2728H36V29.0428C36 29.9628 35.692 30.7308 35.076 31.3468C34.46 31.9628 33.6913 32.2715 32.77 32.2728H3.232ZM16 22.2728V18.2728H20V22.2728H16ZM0 19.2728V9.50482C0 8.58349 0.308667 7.81482 0.926 7.19882C1.54333 6.58282 2.31133 6.27416 3.23 6.27282H12V3.50282C12 2.58282 12.3087 1.81416 12.926 1.19682C13.5433 0.57949 14.312 0.27149 15.232 0.272824H20.77C21.69 0.272824 22.4587 0.580824 23.076 1.19682C23.6933 1.81282 24.0013 2.58149 24 3.50282V6.27282H32.77C33.69 6.27282 34.458 6.58149 35.074 7.19882C35.69 7.81616 35.9987 8.58482 36 9.50482V19.2728H22V16.2728H14V19.2728H0ZM14 6.27282H22V3.50282C22 3.19616 21.872 2.91416 21.616 2.65682C21.36 2.39949 21.078 2.27149 20.77 2.27282H15.23C14.9233 2.27282 14.6413 2.40082 14.384 2.65682C14.1267 2.91282 13.9987 3.19482 14 3.50282V6.27282Z" fill="#012E57"/>
</svg>
