<svg width="38" height="36" viewBox="0 0 38 36" fill="none" xmlns="http://www.w3.org/2000/svg">
<path d="M11.1974 11.1204C12.577 11.1204 13.9001 10.5724 14.8756 9.59686C15.8512 8.62135 16.3992 7.29826 16.3992 5.91867C16.3992 4.53908 15.8512 3.21599 14.8756 2.24048C13.9001 1.26496 12.577 0.716919 11.1974 0.716919C9.81786 0.716919 8.49477 1.26496 7.51925 2.24048C6.54374 3.21599 5.9957 4.53908 5.9957 5.91867C5.9957 7.29826 6.54374 8.62135 7.51925 9.59686C8.49477 10.5724 9.81786 11.1204 11.1974 11.1204ZM0.793945 16.9724C0.793945 16.1101 1.13647 15.2832 1.74617 14.6735C2.35587 14.0638 3.1828 13.7213 4.04504 13.7213H12.3353C12.0124 14.5504 11.847 15.4324 11.8477 16.3222C11.8477 18.741 13.048 20.8802 14.8868 22.1741H11.8477C10.8967 22.174 9.96387 22.4346 9.15063 22.9275C8.33739 23.4205 7.67484 24.1269 7.23501 24.9701C4.74337 24.329 3.14904 23.0818 2.16461 21.667C0.793945 19.6968 0.793945 17.6564 0.793945 17.2975V16.9724ZM30.7651 24.9701C33.2568 24.329 34.8511 23.0818 35.8355 21.667C37.2062 19.6968 37.2062 17.6551 37.2062 17.2975V16.9724C37.2062 16.1101 36.8637 15.2832 36.254 14.6735C35.6443 14.0638 34.8173 13.7213 33.9551 13.7213H25.6648C25.9795 14.5276 26.1525 15.4041 26.1525 16.3222C26.1525 18.741 24.9522 20.8802 23.1134 22.1741H26.1525C27.1035 22.174 28.0363 22.4346 28.8495 22.9275C29.6628 23.4205 30.3253 24.1269 30.7651 24.9701ZM32.0044 5.91867C32.0044 7.29826 31.4564 8.62135 30.4809 9.59686C29.5054 10.5724 28.1823 11.1204 26.8027 11.1204C25.4231 11.1204 24.1 10.5724 23.1245 9.59686C22.149 8.62135 21.6009 7.29826 21.6009 5.91867C21.6009 4.53908 22.149 3.21599 23.1245 2.24048C24.1 1.26496 25.4231 0.716919 26.8027 0.716919C28.1823 0.716919 29.5054 1.26496 30.4809 2.24048C31.4564 3.21599 32.0044 4.53908 32.0044 5.91867ZM8.59657 27.3759C8.59657 26.5136 8.9391 25.6867 9.54879 25.077C10.1585 24.4673 10.9854 24.1248 11.8477 24.1248H26.1525C26.5794 24.1248 27.0022 24.2089 27.3966 24.3723C27.7911 24.5357 28.1495 24.7751 28.4514 25.077C28.7532 25.3789 28.9927 25.7373 29.1561 26.1318C29.3195 26.5262 29.4036 26.949 29.4036 27.3759V27.701C29.4036 28.0586 29.4036 30.1003 28.0329 32.0705C26.6024 34.1265 23.8845 35.8287 19.0001 35.8287C14.1156 35.8287 11.3977 34.1265 9.96723 32.0705C8.59657 30.1003 8.59657 28.0599 8.59657 27.701V27.3759ZM19.0001 21.5239C20.3797 21.5239 21.7027 20.9759 22.6783 20.0004C23.6538 19.0248 24.2018 17.7018 24.2018 16.3222C24.2018 14.9426 23.6538 13.6195 22.6783 12.644C21.7027 11.6685 20.3797 11.1204 19.0001 11.1204C17.6205 11.1204 16.2974 11.6685 15.3219 12.644C14.3464 13.6195 13.7983 14.9426 13.7983 16.3222C13.7983 17.7018 14.3464 19.0248 15.3219 20.0004C16.2974 20.9759 17.6205 21.5239 19.0001 21.5239Z" fill="#012E57"/>
</svg>
