<svg width="36" height="37" viewBox="0 0 36 37" fill="none" xmlns="http://www.w3.org/2000/svg">
<path d="M15.6326 4.79844C14.1308 4.49516 12.5795 4.57591 11.1153 5.0336C9.65106 5.49129 8.31873 6.31187 7.23555 7.42313C6.07983 8.60569 5.24727 10.08 4.82152 11.698C4.39576 13.316 4.39181 15.0207 4.81005 16.6408C5.22878 16.2693 5.73252 16.0133 6.27395 15.897C6.81537 15.7806 7.37669 15.8076 7.90516 15.9755C8.43363 16.1434 8.9119 16.4466 9.29502 16.8566C9.67814 17.2667 9.95352 17.7701 10.0953 18.3196C10.5371 18.254 10.9873 18.2824 11.418 18.4032C11.8487 18.5239 12.2506 18.7344 12.5988 19.0215C12.9469 19.3087 13.2339 19.6663 13.4419 20.0723C13.6499 20.4783 13.7744 20.9239 13.8078 21.3814C14.5867 21.4367 15.32 21.7793 15.8727 22.3461C16.4255 22.9129 16.7604 23.6658 16.8161 24.4663C17.4373 24.5111 18.0329 24.7387 18.5319 25.1219C19.0308 25.505 19.4119 26.0276 19.6299 26.6272C19.8478 27.2268 19.8934 27.8782 19.7611 28.5038C19.6288 29.1293 19.3243 29.7025 18.8838 30.155L18.3551 30.6961L19.9098 32.2062C20.1174 32.4082 20.3935 32.5189 20.6794 32.5146C20.9652 32.5102 21.2381 32.3913 21.4398 32.1831C21.6267 31.9905 21.7401 31.7353 21.7591 31.464C21.7781 31.1927 21.7015 30.9234 21.5433 30.7054L21.4578 30.6175L21.3521 30.4926L21.1248 30.2568C21.0197 30.1493 20.9363 30.0216 20.8794 29.8809C20.8225 29.7402 20.7932 29.5893 20.7932 29.437C20.7932 29.2846 20.8225 29.1337 20.8794 28.9931C20.9363 28.8524 21.0197 28.7246 21.1248 28.6172C21.3356 28.4018 21.6207 28.281 21.9179 28.281C22.2151 28.281 22.5003 28.4018 22.7111 28.6172L23.0261 28.9409C23.0936 29.0103 23.1566 29.0812 23.2151 29.1537L23.3838 29.3294C23.4822 29.4322 23.5995 29.5138 23.7289 29.5696C23.8583 29.6253 23.9972 29.654 24.1376 29.654C24.2779 29.654 24.4168 29.6253 24.5462 29.5696C24.6756 29.5138 24.7929 29.4322 24.8913 29.3294C25.0915 29.1227 25.2039 28.8429 25.2039 28.5513C25.2039 28.2596 25.0915 27.9798 24.8913 27.7731L24.5538 27.4263C24.4458 27.3151 24.361 27.1826 24.3046 27.0367C24.2481 26.8907 24.2211 26.7345 24.2253 26.5776C24.2249 26.3491 24.2903 26.1257 24.4134 25.9355C24.5364 25.7452 24.7115 25.5967 24.9166 25.5086C25.1216 25.4205 25.3475 25.3969 25.5657 25.4406C25.7838 25.4843 25.9845 25.5935 26.1423 25.7543L26.3966 26.0179C26.5061 26.1311 26.6364 26.221 26.7798 26.2823C26.9233 26.3436 27.0771 26.3751 27.2324 26.3751C27.3878 26.3751 27.5416 26.3436 27.685 26.2823C27.8285 26.221 27.9587 26.1311 28.0683 26.0179C28.2888 25.7885 28.4125 25.479 28.4125 25.1565C28.4125 24.834 28.2888 24.5245 28.0683 24.2951L28.0121 24.235L27.8073 24.0384L26.0636 22.2393C25.9588 22.1319 25.8757 22.0043 25.8189 21.8638C25.7622 21.7234 25.733 21.5728 25.733 21.4207C25.733 21.2686 25.7622 21.118 25.8189 20.9775C25.8757 20.8371 25.9588 20.7095 26.0636 20.6021C26.2744 20.386 26.56 20.2647 26.8578 20.2647C27.1556 20.2647 27.4412 20.386 27.6521 20.6021L29.2901 22.2902L29.4003 22.3919L29.5353 22.5307C29.8839 22.8225 30.3256 22.9709 30.7746 22.947C31.2236 22.923 31.6479 22.7285 31.9653 22.4012C32.3065 22.0489 32.498 21.572 32.498 21.075C32.498 20.5779 32.3065 20.1011 31.9653 19.7488L30.3048 18.0352L30.2396 17.9728L23.5076 10.9381H21.7841L17.9321 13.949C16.0691 15.4059 13.4096 15.0359 11.9898 13.1211C11.6514 12.6665 11.4038 12.1477 11.261 11.5944C11.1182 11.0412 11.0831 10.4644 11.1577 9.89716C11.2324 9.32994 11.4152 8.78345 11.6959 8.28905C11.9765 7.79465 12.3494 7.36206 12.7931 7.01613L15.6326 4.79844ZM23.9801 8.62563C24.1293 8.62596 24.2769 8.65679 24.4145 8.71635C24.552 8.7759 24.6766 8.86297 24.7811 8.9725L30.8471 15.3088C31.2792 14.4304 31.5339 13.4711 31.5957 12.4889C31.6575 11.5066 31.5252 10.5217 31.2067 9.59341C30.8882 8.66513 30.3901 7.81275 29.7424 7.08763C29.0948 6.36251 28.311 5.77968 27.4383 5.37425L27.3596 5.33263C26.6277 4.91828 25.8056 4.7011 24.9701 4.70131H19.4576L19.3473 4.79844L14.1566 8.85688C13.948 9.01869 13.7727 9.22134 13.6407 9.45313C13.5087 9.68492 13.4226 9.94128 13.3875 10.2074C13.3523 10.4735 13.3688 10.7442 13.4359 11.0038C13.503 11.2633 13.6195 11.5067 13.7786 11.7198C14.0989 12.1516 14.5729 12.4351 15.0964 12.5079C15.62 12.5808 16.1503 12.437 16.5708 12.1083L20.7243 8.8615C20.9197 8.70879 21.1583 8.62595 21.4038 8.62563H23.9801ZM14.2803 25.4352L12.8021 26.9499C12.6139 27.1428 12.359 27.2511 12.0933 27.2511C11.8276 27.2511 11.5727 27.1428 11.3846 26.9499C11.2011 26.7625 11.0957 26.5091 11.0907 26.2432C11.0856 25.9774 11.1813 25.72 11.3576 25.5254L11.3868 25.4953L12.8628 23.9806L12.8898 23.9552C13.0801 23.7745 13.331 23.6764 13.59 23.6811C13.8491 23.6858 14.0963 23.7931 14.2803 23.9806C14.3737 24.0759 14.4478 24.1892 14.4984 24.314C14.549 24.4388 14.5751 24.5727 14.5751 24.7079C14.5751 24.8431 14.549 24.977 14.4984 25.1018C14.4478 25.2267 14.3737 25.34 14.2803 25.4352ZM14.3951 30.0348C14.5832 30.2276 14.8381 30.336 15.1038 30.336C15.3695 30.336 15.6244 30.2276 15.8126 30.0348L17.2908 28.5201C17.3961 28.4125 17.4767 28.282 17.5267 28.1383C17.5766 27.9946 17.5947 27.8412 17.5796 27.6894C17.5645 27.5376 17.5166 27.3912 17.4394 27.2608C17.3622 27.1305 17.2576 27.0195 17.1333 26.936C16.9405 26.8058 16.71 26.7478 16.4805 26.7718C16.251 26.7958 16.0366 26.9003 15.8733 27.0678L14.3951 28.5825C14.302 28.6777 14.2281 28.7908 14.1777 28.9155C14.1274 29.0401 14.1014 29.1737 14.1014 29.3086C14.1014 29.4436 14.1274 29.5772 14.1777 29.7018C14.2281 29.8264 14.302 29.9396 14.3951 30.0348ZM7.6788 19.8667L6.2028 21.3814C6.01468 21.5743 5.75979 21.6826 5.49405 21.6826C5.22831 21.6826 4.97343 21.5743 4.7853 21.3814C4.60183 21.194 4.49644 20.9406 4.4914 20.6747C4.48636 20.4089 4.58207 20.1515 4.7583 19.9569L4.78755 19.9268L6.26355 18.4121L6.29055 18.3867C6.48081 18.2065 6.73143 18.1088 6.9901 18.114C7.24877 18.1191 7.49551 18.2268 7.6788 18.4144C7.77187 18.5096 7.84572 18.6228 7.89611 18.7474C7.9465 18.872 7.97244 19.0056 7.97244 19.1406C7.97244 19.2755 7.9465 19.4091 7.89611 19.5337C7.84572 19.6583 7.77187 19.7715 7.6788 19.8667ZM11.0021 22.4405L9.52605 23.9529C9.33793 24.1458 9.08304 24.2541 8.8173 24.2541C8.55156 24.2541 8.29668 24.1458 8.10855 23.9529C7.92574 23.7656 7.82077 23.5126 7.81574 23.2474C7.8107 22.9821 7.90599 22.7252 8.08155 22.5307L8.1108 22.5006L9.5868 20.9859L9.6138 20.9582C9.80406 20.778 10.0547 20.6803 10.3134 20.6855C10.572 20.6906 10.8188 20.7983 11.0021 20.9859C11.0955 21.0812 11.1696 21.1945 11.2202 21.3193C11.2708 21.4441 11.2968 21.578 11.2968 21.7132C11.2968 21.8484 11.2708 21.9823 11.2202 22.1071C11.1696 22.232 11.0955 22.3453 11.0021 22.4405Z" fill="#012E57"/>
</svg>
