<svg width="101" height="46" viewBox="0 0 101 46" fill="none" xmlns="http://www.w3.org/2000/svg">
<path fill-rule="evenodd" clip-rule="evenodd" d="M33.9587 7.63694L24.4479 5.08855C23.7914 4.91262 23.2591 5.32104 23.2591 6.00078V15.847C23.2591 16.5268 23.7914 17.2204 24.4479 17.3964L33.9587 19.9447C34.6153 20.1207 35.1475 19.7123 35.1475 19.0325V9.18627C35.1475 8.50653 34.6153 7.81287 33.9587 7.63694ZM24.4479 1.39621C21.8216 0.692487 19.6926 2.32617 19.6926 5.04513V14.8914C19.6926 17.6103 21.8216 20.385 24.4479 21.0887L33.9587 23.6371C36.585 24.3408 38.714 22.7071 38.714 19.9882V10.1419C38.714 7.42296 36.585 4.64832 33.9587 3.9446L24.4479 1.39621Z" fill="#8098F9"/>
<path fill-rule="evenodd" clip-rule="evenodd" d="M26.4912 15.6587L14.6028 12.4732C13.9462 12.2973 13.4139 12.7057 13.4139 13.3854V25.6932C13.4139 26.373 13.9462 27.0666 14.6028 27.2426L26.4912 30.4281C27.1478 30.604 27.6801 30.1956 27.6801 29.5158V17.208C27.6801 16.5283 27.1478 15.8346 26.4912 15.6587ZM14.6028 8.78085C11.9765 8.07713 9.84741 9.71081 9.84741 12.4298V24.7376C9.84741 27.4565 11.9765 30.2312 14.6028 30.9349L26.4912 34.1204C29.1175 34.8241 31.2466 33.1904 31.2466 30.4715V18.1637C31.2466 15.4447 29.1175 12.6701 26.4912 11.9663L14.6028 8.78085Z" fill="#6172F3"/>
<path fill-rule="evenodd" clip-rule="evenodd" d="M19.0216 23.6805L4.75549 19.8579C4.09891 19.682 3.56665 20.0904 3.56665 20.7702V35.5395C3.56665 36.2193 4.09891 36.9129 4.75549 37.0889L19.0216 40.9114C19.6782 41.0874 20.2104 40.679 20.2104 39.9992V25.2298C20.2104 24.5501 19.6782 23.8564 19.0216 23.6805ZM4.75549 16.1656C2.12917 15.4619 0.00012207 17.0955 0.00012207 19.8145V34.5839C0.00012207 37.3028 2.12917 40.0775 4.75549 40.7812L19.0216 44.6038C21.6479 45.3075 23.777 43.6738 23.777 40.9549V26.1855C23.777 23.4665 21.6479 20.6919 19.0216 19.9882L4.75549 16.1656Z" fill="#444CE7"/>
<path d="M57.1286 20.7557C55.782 20.7557 54.623 20.483 53.6514 19.9375C52.6855 19.3864 51.9411 18.608 51.4184 17.6023C50.8957 16.5909 50.6343 15.3949 50.6343 14.0142C50.6343 12.6676 50.8957 11.4858 51.4184 10.4688C51.9411 9.4517 52.6769 8.65909 53.6258 8.09091C54.5803 7.52273 55.6997 7.23864 56.9838 7.23864C57.8474 7.23864 58.6514 7.37784 59.3957 7.65625C60.1457 7.92898 60.7991 8.34091 61.3559 8.89205C61.9184 9.44318 62.3559 10.1364 62.6684 10.9716C62.9809 11.8011 63.1372 12.7727 63.1372 13.8864V14.8835H52.0832V12.6335H59.7195C59.7195 12.1108 59.6059 11.6477 59.3786 11.2443C59.1514 10.8409 58.836 10.5256 58.4326 10.2983C58.0349 10.0653 57.5718 9.94886 57.0434 9.94886C56.4923 9.94886 56.0036 10.0767 55.5775 10.3324C55.157 10.5824 54.8275 10.9205 54.5889 11.3466C54.3502 11.767 54.2281 12.2358 54.2224 12.7528V14.892C54.2224 15.5398 54.3417 16.0994 54.5803 16.571C54.8247 17.0426 55.1684 17.4062 55.6116 17.6619C56.0548 17.9176 56.5803 18.0455 57.1883 18.0455C57.5917 18.0455 57.961 17.9886 58.2963 17.875C58.6315 17.7614 58.9184 17.5909 59.157 17.3636C59.3957 17.1364 59.5775 16.858 59.7025 16.5284L63.0605 16.75C62.89 17.5568 62.5406 18.2614 62.0122 18.8636C61.4894 19.4602 60.8133 19.9261 59.9838 20.2614C59.1599 20.5909 58.2082 20.7557 57.1286 20.7557ZM65.5747 20.5V3.04545H72.5633C73.8474 3.04545 74.9184 3.2358 75.7764 3.61648C76.6343 3.99716 77.2792 4.52557 77.711 5.2017C78.1428 5.87216 78.3588 6.64489 78.3588 7.51989C78.3588 8.2017 78.2224 8.80114 77.9497 9.31818C77.6769 9.82955 77.3019 10.25 76.8247 10.5795C76.3531 10.9034 75.8133 11.1335 75.2053 11.2699V11.4403C75.8701 11.4687 76.4923 11.6562 77.0718 12.0028C77.657 12.3494 78.1315 12.8352 78.4951 13.4602C78.8588 14.0795 79.0406 14.8182 79.0406 15.6761C79.0406 16.6023 78.8105 17.429 78.3502 18.1562C77.8957 18.8778 77.2224 19.4489 76.3303 19.8693C75.4383 20.2898 74.3389 20.5 73.032 20.5H65.5747ZM69.265 17.483H72.2735C73.3019 17.483 74.0519 17.2869 74.5235 16.8949C74.9951 16.4972 75.2309 15.9687 75.2309 15.3097C75.2309 14.8267 75.1144 14.4006 74.8815 14.0312C74.6485 13.6619 74.3161 13.3722 73.8843 13.1619C73.4582 12.9517 72.9497 12.8466 72.3588 12.8466H69.265V17.483ZM69.265 10.3494H72.0008C72.5065 10.3494 72.9553 10.2614 73.3474 10.0852C73.7451 9.90341 74.0576 9.64773 74.2849 9.31818C74.5178 8.98864 74.6343 8.59375 74.6343 8.13352C74.6343 7.50284 74.4099 6.99432 73.961 6.60795C73.5178 6.22159 72.8872 6.02841 72.069 6.02841H69.265V10.3494ZM81.3737 20.5V7.40909H85.0044V20.5H81.3737ZM83.1975 5.72159C82.6578 5.72159 82.1947 5.54261 81.8083 5.18466C81.4276 4.82102 81.2373 4.38636 81.2373 3.88068C81.2373 3.38068 81.4276 2.9517 81.8083 2.59375C82.1947 2.23011 82.6578 2.04829 83.1975 2.04829C83.7373 2.04829 84.1975 2.23011 84.5782 2.59375C84.9646 2.9517 85.1578 3.38068 85.1578 3.88068C85.1578 4.38636 84.9646 4.82102 84.5782 5.18466C84.1975 5.54261 83.7373 5.72159 83.1975 5.72159ZM87.8445 20.5V18.3352L94.2536 10.4006V10.3068H88.0661V7.40909H98.6258V9.76989L92.6088 17.5085V17.6023H98.8474V20.5H87.8445ZM50.9333 40.5V28.1364H55.5697C56.5195 28.1364 57.3164 28.3134 57.9603 28.6676C58.6083 29.0218 59.0973 29.5088 59.4273 30.1286C59.7613 30.7443 59.9284 31.4446 59.9284 32.2294C59.9284 33.0223 59.7613 33.7266 59.4273 34.3423C59.0932 34.9581 58.6002 35.4431 57.9482 35.7972C57.2963 36.1474 56.4933 36.3224 55.5395 36.3224H52.4667V34.4812H55.2377C55.7931 34.4812 56.2478 34.3846 56.602 34.1914C56.9562 33.9982 57.2178 33.7326 57.3868 33.3945C57.5599 33.0565 57.6464 32.6681 57.6464 32.2294C57.6464 31.7907 57.5599 31.4044 57.3868 31.0703C57.2178 30.7363 56.9542 30.4767 56.596 30.2915C56.2418 30.1024 55.785 30.0078 55.2256 30.0078H53.173V40.5H50.9333ZM65.6891 40.6811C64.7836 40.6811 63.9988 40.4819 63.3347 40.0835C62.6706 39.685 62.1555 39.1276 61.7892 38.4112C61.427 37.6948 61.2459 36.8577 61.2459 35.8999C61.2459 34.942 61.427 34.1029 61.7892 33.3825C62.1555 32.662 62.6706 32.1026 63.3347 31.7042C63.9988 31.3058 64.7836 31.1065 65.6891 31.1065C66.5946 31.1065 67.3794 31.3058 68.0435 31.7042C68.7076 32.1026 69.2207 32.662 69.5829 33.3825C69.9492 34.1029 70.1323 34.942 70.1323 35.8999C70.1323 36.8577 69.9492 37.6948 69.5829 38.4112C69.2207 39.1276 68.7076 39.685 68.0435 40.0835C67.3794 40.4819 66.5946 40.6811 65.6891 40.6811ZM65.7012 38.9304C66.1922 38.9304 66.6027 38.7956 66.9327 38.5259C67.2627 38.2522 67.5082 37.886 67.6692 37.4272C67.8342 36.9684 67.9167 36.4573 67.9167 35.8938C67.9167 35.3263 67.8342 34.8132 67.6692 34.3544C67.5082 33.8916 67.2627 33.5233 66.9327 33.2496C66.6027 32.976 66.1922 32.8391 65.7012 32.8391C65.1981 32.8391 64.7795 32.976 64.4455 33.2496C64.1155 33.5233 63.868 33.8916 63.7029 34.3544C63.542 34.8132 63.4615 35.3263 63.4615 35.8938C63.4615 36.4573 63.542 36.9684 63.7029 37.4272C63.868 37.886 64.1155 38.2522 64.4455 38.5259C64.7795 38.7956 65.1981 38.9304 65.7012 38.9304ZM71.9871 40.5V31.2273H74.1061V32.7727H74.2027C74.3717 32.2375 74.6615 31.8249 75.072 31.5352C75.4865 31.2414 75.9594 31.0945 76.4907 31.0945C76.6114 31.0945 76.7462 31.1005 76.8952 31.1126C77.0481 31.1206 77.1749 31.1347 77.2755 31.1548V33.1651C77.1829 33.1329 77.036 33.1048 76.8348 33.0806C76.6376 33.0524 76.4464 33.0384 76.2613 33.0384C75.8628 33.0384 75.5046 33.1249 75.1867 33.2979C74.8728 33.467 74.6253 33.7024 74.4442 34.0043C74.2631 34.3061 74.1725 34.6542 74.1725 35.0487V40.5H71.9871ZM83.8557 31.2273V32.9176H78.5251V31.2273H83.8557ZM79.8412 29.0057H82.0265V37.7109C82.0265 38.0047 82.0708 38.2301 82.1594 38.3871C82.2519 38.54 82.3727 38.6446 82.5216 38.701C82.6705 38.7573 82.8355 38.7855 83.0166 38.7855C83.1534 38.7855 83.2782 38.7754 83.3909 38.7553C83.5076 38.7352 83.5961 38.7171 83.6565 38.701L84.0248 40.4094C83.9081 40.4497 83.741 40.494 83.5237 40.5423C83.3104 40.5906 83.0488 40.6187 82.7389 40.6268C82.1916 40.6429 81.6985 40.5604 81.2599 40.3793C80.8212 40.1941 80.473 39.9084 80.2155 39.522C79.9619 39.1357 79.8372 38.6527 79.8412 38.0732V29.0057ZM88.3517 40.6871C87.7641 40.6871 87.2349 40.5825 86.764 40.3732C86.2972 40.1599 85.9269 39.846 85.6532 39.4315C85.3836 39.0169 85.2488 38.5058 85.2488 37.8981C85.2488 37.3749 85.3453 36.9422 85.5385 36.6001C85.7317 36.258 85.9953 35.9844 86.3294 35.7791C86.6634 35.5739 87.0397 35.4189 87.4583 35.3143C87.8809 35.2056 88.3175 35.1271 88.7683 35.0788C89.3116 35.0225 89.7523 34.9722 90.0904 34.9279C90.4284 34.8796 90.6739 34.8072 90.8269 34.7106C90.9838 34.61 91.0623 34.455 91.0623 34.2457V34.2095C91.0623 33.7547 90.9275 33.4026 90.6578 33.1531C90.3882 32.9035 89.9998 32.7788 89.4927 32.7788C88.9574 32.7788 88.5328 32.8955 88.2189 33.1289C87.909 33.3623 87.6998 33.638 87.5911 33.956L85.5506 33.6662C85.7116 33.1027 85.9772 32.6319 86.3475 32.2536C86.7177 31.8712 87.1705 31.5855 87.7058 31.3963C88.2411 31.2031 88.8327 31.1065 89.4806 31.1065C89.9274 31.1065 90.3721 31.1589 90.8148 31.2635C91.2575 31.3681 91.662 31.5412 92.0282 31.7827C92.3945 32.0201 92.6883 32.3441 92.9096 32.7546C93.135 33.1651 93.2477 33.6783 93.2477 34.294V40.5H91.1468V39.2262H91.0744C90.9416 39.4838 90.7544 39.7253 90.513 39.9506C90.2755 40.172 89.9757 40.3511 89.6135 40.4879C89.2553 40.6207 88.8347 40.6871 88.3517 40.6871ZM88.9192 39.0813C89.3579 39.0813 89.7382 38.9948 90.0602 38.8217C90.3822 38.6446 90.6297 38.4112 90.8027 38.1214C90.9798 37.8317 91.0684 37.5157 91.0684 37.1737V36.081C90.9999 36.1373 90.8832 36.1896 90.7182 36.2379C90.5572 36.2862 90.3761 36.3285 90.1749 36.3647C89.9737 36.4009 89.7744 36.4331 89.5772 36.4613C89.38 36.4895 89.209 36.5136 89.0641 36.5337C88.7381 36.578 88.4463 36.6504 88.1887 36.7511C87.9312 36.8517 87.7279 36.9925 87.579 37.1737C87.4301 37.3507 87.3556 37.5801 87.3556 37.8619C87.3556 38.2643 87.5025 38.5682 87.7963 38.7734C88.0901 38.9787 88.4644 39.0813 88.9192 39.0813ZM97.6305 28.1364V40.5H95.4451V28.1364H97.6305Z" fill="#333333"/>
</svg>
