<svg width="44" height="44" viewBox="0 0 44 44" fill="none" xmlns="http://www.w3.org/2000/svg">
<path d="M10.5 15C9.7 15 9 14.3 9 13.5C9 12.7 9.7 12 10.5 12C11.3 12 12 12.7 12 13.5C12 14.3 11.3 15 10.5 15ZM10.5 10C8.6 10 7 11.6 7 13.5C7 15.4 8.6 17 10.5 17C12.4 17 14 15.4 14 13.5C14 11.6 12.4 10 10.5 10ZM35 13.5C35 14.3 34.4 15 33.5 15C33.1 15 32.7 14.9 32.4 14.6C32.2 14.4 32 14 32 13.5C32 12.7 32.7 12 33.5 12C33.9 12 34.3 12.2 34.6 12.4C34.9 12.6 35 13.1 35 13.5ZM33.5 10C31.6 10 30 11.6 30 13.5V13.6C30 14.5 30.4 15.4 31.1 16.1C31.8 16.7 32.6 17.1 33.5 17.1H33.6C35.5 17.1 37.1 15.5 37 13.6C37 11.6 35.4 10 33.5 10ZM31 18V20H35C35.6 20 36.1 20.2 36.4 20.6C36.7 21 37 21.4 37 22V29.3C37 29.9 36.8 30.5 36.3 30.9C36 31.2 35.6 31.5 35 31.5H34V40C34 40.6 34.4 41 35 41C35.6 41 36 40.5 36 40V33.4C36.7 33.2 37.2 32.9 37.7 32.4C38.6 31.6 39 30.5 39 29.3V22C39 20.9 38.6 19.9 37.8 19.2C37.1 18.4 36.1 18 35 18H31ZM9 18C7.9 18 6.9 18.4 6.2 19.2C5.4 19.9 5 20.9 5 22V29.3C5 30.4 5.4 31.4 6.1 32.2C6.6 32.8 7.3 33.2 8 33.4V40C8 40.6 8.4 41 9 41C9.6 41 10 40.6 10 40V31.5H9C8.5 31.5 8 31.3 7.6 30.9C7.2 30.5 7 29.9 7 29.3V22C7 21.4 7.2 20.9 7.6 20.6C7.9 20.2 8.4 20 9 20H13V18H9ZM19.1 12C16.8 12 15 13.9 15 16.1V26.6C15 28.6 16.3 30.3 18 30.8V39.9C18 40.5 18.4 40.9 19 40.9C19.6 40.9 20 40.5 20 39.9V28.9H19C17.8 28.9 17 27.7 17 26.5V16C17 14.8 17.9 13.9 19.1 13.9H25C25.5 13.9 26 14.1 26.4 14.5C26.8 14.9 27 15.5 27 16.1V27C27 27.6 26.8 28.1 26.4 28.4C26.1 28.8 25.6 29 25 29H24V40C24 40.6 24.4 41 25 41C25.6 41 26 40.6 26 40V30.9C27.7 30.5 29 28.9 29 27V16.2C29 15.1 28.6 14.1 27.9 13.3C27.2 12.4 26.1 12 25 12H19.1ZM22 3C19.8 3 18 4.8 18 7C18 9.2 19.8 11 22 11C24.2 11 26 9.2 26 7C26 4.8 24.2 3 22 3Z" fill="#2D68FF"/>
</svg>
