<svg width="36" height="35" viewBox="0 0 36 35" fill="none" xmlns="http://www.w3.org/2000/svg">
<path d="M19.2861 33.7475V20.6225C19.2861 19.7937 19.6248 18.9988 20.2276 18.4128C20.8304 17.8267 21.6479 17.4975 22.5004 17.4975C23.3529 17.4975 24.1705 17.8267 24.7733 18.4128C25.3761 18.9988 25.7147 19.7937 25.7147 20.6225V27.4975H30.8576C32.2215 27.4975 33.5296 28.0243 34.4941 28.962C35.4586 29.8997 36.0004 31.1714 36.0004 32.4975V33.7475" fill="#012E57"/>
<path fill-rule="evenodd" clip-rule="evenodd" d="M0.0800794 11.06C0.0829765 9.46782 0.439508 7.89503 1.12529 6.44917C1.81108 5.00331 2.80995 3.71849 4.05359 2.68256C5.29723 1.64664 6.75631 0.884049 8.33106 0.446934C9.9058 0.00982004 11.5591 -0.0915057 13.1778 0.149886C14.7966 0.391277 16.3426 0.969692 17.7102 1.84558C19.0778 2.72146 20.2347 3.87416 21.1018 5.22485C21.9689 6.57553 22.5258 8.09235 22.7343 9.67157C22.9429 11.2508 22.7982 12.8552 22.3101 14.375C20.6388 14.4231 19.0525 15.1024 17.8878 16.2688C16.7231 17.4352 16.0717 18.9969 16.0718 20.6225V21.17C14.3398 21.9182 12.4429 22.2338 10.5535 22.088C8.66418 21.9422 6.84225 21.3396 5.25334 20.3351C3.66443 19.3306 2.35892 17.956 1.45545 16.3361C0.551977 14.7163 0.0791983 12.9027 0.0800794 11.06ZM11.4535 2.965C12.3432 2.965 13.0606 3.665 13.0606 4.5275V5.235C13.6926 5.37647 14.2776 5.67054 14.7616 6.09003C15.2457 6.50952 15.6132 7.04088 15.8301 7.635C15.9005 7.82854 15.931 8.03366 15.9199 8.23866C15.9087 8.44366 15.8562 8.64452 15.7652 8.82977C15.6742 9.01503 15.5466 9.18104 15.3896 9.31835C15.2327 9.45565 15.0494 9.56155 14.8504 9.63C14.6513 9.69845 14.4403 9.72812 14.2295 9.71729C14.0186 9.70647 13.812 9.65538 13.6215 9.56693C13.4309 9.47848 13.2602 9.35441 13.1189 9.20181C12.9777 9.0492 12.8688 8.87104 12.7984 8.6775C12.7535 8.55837 12.6724 8.45534 12.5658 8.3821C12.4592 8.30887 12.3323 8.2689 12.2018 8.2675H10.4661C10.3701 8.26912 10.2781 8.3048 10.2073 8.36782C10.1364 8.43083 10.0918 8.51684 10.0817 8.60964C10.0716 8.70244 10.0967 8.79564 10.1523 8.87168C10.208 8.94772 10.2903 9.00136 10.3838 9.0225L13.0247 9.5825C13.8784 9.76501 14.6429 10.2246 15.1922 10.8857C15.7416 11.5467 16.0432 12.3699 16.0474 13.2198C16.0516 14.0696 15.7581 14.8956 15.2153 15.5617C14.6724 16.2279 13.9126 16.6945 13.0606 16.885V17.595C13.0606 18.0094 12.8913 18.4068 12.5899 18.6999C12.2885 18.9929 11.8797 19.1575 11.4535 19.1575C11.0273 19.1575 10.6185 18.9929 10.3171 18.6999C10.0157 18.4068 9.84636 18.0094 9.84636 17.595V16.8875C9.21492 16.7457 8.63042 16.4514 8.14684 16.032C7.66326 15.6125 7.29618 15.0813 7.07951 14.4875C6.93731 14.0966 6.96065 13.6669 7.14438 13.2927C7.32811 12.9186 7.65719 12.6307 8.05922 12.4925C8.46125 12.3543 8.9033 12.3769 9.28813 12.5556C9.67295 12.7342 9.96903 13.0541 10.1112 13.445C10.1561 13.5641 10.2372 13.6672 10.3438 13.7404C10.4503 13.8136 10.5773 13.8536 10.7078 13.855H12.2018C12.3558 13.8513 12.5032 13.7933 12.6165 13.6918C12.7299 13.5903 12.8014 13.4522 12.8177 13.3033C12.8341 13.1543 12.7942 13.0046 12.7055 12.8822C12.6168 12.7597 12.4853 12.6727 12.3355 12.6375L9.69722 12.075C8.88 11.9018 8.15007 11.458 7.63227 10.8194C7.11447 10.1808 6.84099 9.38707 6.85861 8.57408C6.87623 7.76109 7.18385 6.97931 7.72885 6.36247C8.27385 5.74563 9.02237 5.33206 9.84636 5.1925V4.5275C9.84636 3.6625 10.5664 2.965 11.4535 2.965ZM19.2861 20.6225V34.9975H36.0004V32.4975C36.0004 31.1714 35.4585 29.8997 34.4941 28.962C33.5296 28.0243 32.2215 27.4975 30.8575 27.4975H25.7147V20.6225C25.7147 19.7937 25.376 18.9988 24.7732 18.4128C24.1704 17.8267 23.3528 17.4975 22.5004 17.4975C21.6479 17.4975 20.8303 17.8267 20.2275 18.4128C19.6247 18.9988 19.2861 19.7937 19.2861 20.6225Z" fill="#012E57"/>
</svg>
