<svg width="178" height="46" viewBox="0 0 178 46" fill="none" xmlns="http://www.w3.org/2000/svg">
<path fill-rule="evenodd" clip-rule="evenodd" d="M33.9595 7.63694L24.4487 5.08855C23.7922 4.91262 23.2599 5.32104 23.2599 6.00078V15.847C23.2599 16.5268 23.7922 17.2204 24.4487 17.3964L33.9595 19.9447C34.616 20.1207 35.1483 19.7123 35.1483 19.0325V9.18627C35.1483 8.50653 34.616 7.81287 33.9595 7.63694ZM24.4487 1.39621C21.8224 0.692487 19.6934 2.32617 19.6934 5.04513V14.8914C19.6934 17.6103 21.8224 20.385 24.4487 21.0887L33.9595 23.6371C36.5858 24.3408 38.7148 22.7071 38.7148 19.9882V10.1419C38.7148 7.42296 36.5858 4.64832 33.9595 3.9446L24.4487 1.39621Z" fill="#8098F9"/>
<path fill-rule="evenodd" clip-rule="evenodd" d="M26.4915 15.6587L14.603 12.4732C13.9464 12.2973 13.4142 12.7057 13.4142 13.3854V25.6932C13.4142 26.373 13.9464 27.0666 14.603 27.2426L26.4915 30.4281C27.148 30.604 27.6803 30.1956 27.6803 29.5158V17.208C27.6803 16.5283 27.148 15.8346 26.4915 15.6587ZM14.603 8.78085C11.9767 8.07713 9.84766 9.71081 9.84766 12.4298V24.7376C9.84766 27.4565 11.9767 30.2312 14.603 30.9349L26.4915 34.1204C29.1178 34.8241 31.2468 33.1904 31.2468 30.4715V18.1637C31.2468 15.4447 29.1178 12.6701 26.4915 11.9663L14.603 8.78085Z" fill="#6172F3"/>
<path fill-rule="evenodd" clip-rule="evenodd" d="M19.0215 23.6805L4.75537 19.8579C4.09879 19.682 3.56653 20.0904 3.56653 20.7702V35.5395C3.56653 36.2193 4.09879 36.9129 4.75537 37.0889L19.0215 40.9114C19.6781 41.0874 20.2103 40.679 20.2103 39.9992V25.2298C20.2103 24.5501 19.6781 23.8564 19.0215 23.6805ZM4.75537 16.1656C2.12905 15.4619 0 17.0955 0 19.8145V34.5839C0 37.3028 2.12905 40.0775 4.75537 40.7812L19.0215 44.6038C21.6478 45.3075 23.7769 43.6738 23.7769 40.9549V26.1855C23.7769 23.4665 21.6478 20.6919 19.0215 19.9882L4.75537 16.1656Z" fill="#444CE7"/>
<path d="M50.9343 19V6.63636H55.5707C56.5205 6.63636 57.3174 6.81345 57.9613 7.16761C58.6093 7.52178 59.0982 8.00876 59.4283 8.62855C59.7623 9.24432 59.9293 9.9446 59.9293 10.7294C59.9293 11.5223 59.7623 12.2266 59.4283 12.8423C59.0942 13.4581 58.6012 13.9431 57.9492 14.2972C57.2972 14.6474 56.4943 14.8224 55.5405 14.8224H52.4677V12.9812H55.2386C55.794 12.9812 56.2488 12.8846 56.603 12.6914C56.9571 12.4982 57.2188 12.2326 57.3878 11.8945C57.5608 11.5565 57.6474 11.1681 57.6474 10.7294C57.6474 10.2907 57.5608 9.90436 57.3878 9.57031C57.2188 9.23627 56.9551 8.97668 56.5969 8.79155C56.2428 8.60239 55.786 8.50781 55.2266 8.50781H53.174V19H50.9343ZM67.6883 15.1001V9.72727H69.8737V19H67.7547V17.3519H67.6581C67.4488 17.8711 67.1047 18.2957 66.6258 18.6257C66.1509 18.9557 65.5653 19.1207 64.8691 19.1207C64.2613 19.1207 63.724 18.9859 63.2572 18.7163C62.7944 18.4426 62.4321 18.0462 62.1705 17.527C61.9089 17.0038 61.7781 16.3719 61.7781 15.6314V9.72727H63.9635V15.2933C63.9635 15.8809 64.1245 16.3478 64.4465 16.6939C64.7684 17.04 65.191 17.2131 65.7142 17.2131C66.0362 17.2131 66.3481 17.1346 66.6499 16.9776C66.9518 16.8207 67.1993 16.5872 67.3925 16.2773C67.5897 15.9634 67.6883 15.571 67.6883 15.1001ZM74.3063 13.5668V19H72.1209V9.72727H74.2097V11.3029H74.3184C74.5317 10.7837 74.8717 10.3712 75.3386 10.0653C75.8095 9.75947 76.391 9.60653 77.0833 9.60653C77.7232 9.60653 78.2806 9.74337 78.7555 10.017C79.2344 10.2907 79.6047 10.6871 79.8663 11.2063C80.1319 11.7255 80.2627 12.3554 80.2587 13.0959V19H78.0733V13.4339C78.0733 12.8142 77.9123 12.3292 77.5904 11.979C77.2724 11.6289 76.8317 11.4538 76.2683 11.4538C75.8859 11.4538 75.5459 11.5384 75.248 11.7074C74.9542 11.8724 74.7228 12.1119 74.5538 12.4258C74.3888 12.7397 74.3063 13.12 74.3063 13.5668ZM82.4803 9.72727H84.6657V19.5312C84.6657 20.1993 84.5389 20.7507 84.2853 21.1854C84.0318 21.62 83.6655 21.944 83.1866 22.1573C82.7077 22.3706 82.1261 22.4773 81.4419 22.4773C81.3614 22.4773 81.287 22.4753 81.2186 22.4712C81.1502 22.4712 81.0757 22.4692 80.9952 22.4652V20.6843C81.0556 20.6883 81.1099 20.6903 81.1582 20.6903C81.2065 20.6944 81.2568 20.6964 81.3091 20.6964C81.7277 20.6964 82.0275 20.5938 82.2086 20.3885C82.3897 20.1873 82.4803 19.8915 82.4803 19.5011V9.72727ZM83.5669 8.41122C83.2168 8.41122 82.917 8.29652 82.6674 8.06712C82.4219 7.83369 82.2992 7.55398 82.2992 7.22798C82.2992 6.89796 82.4219 6.61825 82.6674 6.38885C82.917 6.15542 83.2168 6.03871 83.5669 6.03871C83.9131 6.03871 84.2089 6.15542 84.4544 6.38885C84.7039 6.61825 84.8287 6.89796 84.8287 7.22798C84.8287 7.55398 84.7039 7.83369 84.4544 8.06712C84.2089 8.29652 83.9131 8.41122 83.5669 8.41122ZM89.5812 19.1871C88.9936 19.1871 88.4644 19.0825 87.9935 18.8732C87.5267 18.6599 87.1564 18.346 86.8827 17.9315C86.6131 17.5169 86.4782 17.0058 86.4782 16.3981C86.4782 15.8749 86.5748 15.4422 86.768 15.1001C86.9612 14.758 87.2248 14.4844 87.5589 14.2791C87.8929 14.0739 88.2692 13.9189 88.6878 13.8143C89.1104 13.7056 89.547 13.6271 89.9978 13.5788C90.5411 13.5225 90.9818 13.4722 91.3199 13.4279C91.6579 13.3796 91.9034 13.3072 92.0564 13.2106C92.2133 13.11 92.2918 12.955 92.2918 12.7457V12.7095C92.2918 12.2547 92.157 11.9026 91.8873 11.6531C91.6177 11.4035 91.2293 11.2788 90.7222 11.2788C90.1869 11.2788 89.7623 11.3955 89.4484 11.6289C89.1385 11.8623 88.9292 12.138 88.8206 12.456L86.7801 12.1662C86.9411 11.6027 87.2067 11.1319 87.577 10.7536C87.9472 10.3712 88.4 10.0855 88.9353 9.89631C89.4706 9.70312 90.0622 9.60653 90.7101 9.60653C91.1569 9.60653 91.6016 9.65885 92.0443 9.76349C92.487 9.86813 92.8915 10.0412 93.2577 10.2827C93.624 10.5201 93.9178 10.8441 94.1391 11.2546C94.3645 11.6651 94.4772 12.1783 94.4772 12.794V19H92.3763V17.7262H92.3039C92.1711 17.9838 91.9839 18.2253 91.7425 18.4506C91.505 18.672 91.2052 18.8511 90.843 18.9879C90.4848 19.1207 90.0642 19.1871 89.5812 19.1871ZM90.1487 17.5813C90.5874 17.5813 90.9677 17.4948 91.2897 17.3217C91.6117 17.1446 91.8592 16.9112 92.0322 16.6214C92.2093 16.3317 92.2979 16.0157 92.2979 15.6737V14.581C92.2294 14.6373 92.1127 14.6896 91.9477 14.7379C91.7867 14.7862 91.6056 14.8285 91.4044 14.8647C91.2032 14.9009 91.0039 14.9331 90.8067 14.9613C90.6095 14.9895 90.4385 15.0136 90.2936 15.0337C89.9676 15.078 89.6758 15.1504 89.4182 15.2511C89.1607 15.3517 88.9574 15.4925 88.8085 15.6737C88.6596 15.8507 88.5851 16.0801 88.5851 16.3619C88.5851 16.7643 88.732 17.0682 89.0258 17.2734C89.3196 17.4787 89.6939 17.5813 90.1487 17.5813ZM96.7712 19V6.63636H98.9566V11.2607H99.0471C99.1598 11.0353 99.3188 10.7958 99.5241 10.5423C99.7293 10.2847 100.007 10.0653 100.357 9.88423C100.707 9.6991 101.154 9.60653 101.697 9.60653C102.414 9.60653 103.06 9.78965 103.635 10.1559C104.215 10.5181 104.674 11.0554 105.012 11.7678C105.354 12.4761 105.525 13.3454 105.525 14.3757C105.525 15.3939 105.358 16.2592 105.024 16.9716C104.69 17.6839 104.235 18.2273 103.659 18.6016C103.084 18.9759 102.432 19.163 101.703 19.163C101.172 19.163 100.731 19.0745 100.381 18.8974C100.031 18.7203 99.7494 18.507 99.5361 18.2575C99.3269 18.0039 99.1639 17.7644 99.0471 17.5391H98.9204V19H96.7712ZM98.9143 14.3636C98.9143 14.9633 98.9988 15.4885 99.1679 15.9393C99.3409 16.39 99.5885 16.7422 99.9104 16.9957C100.236 17.2453 100.631 17.37 101.094 17.37C101.577 17.37 101.981 17.2412 102.307 16.9837C102.633 16.7221 102.879 16.3659 103.044 15.9151C103.213 15.4603 103.297 14.9432 103.297 14.3636C103.297 13.7881 103.215 13.277 103.05 12.8303C102.885 12.3835 102.639 12.0334 102.313 11.7798C101.987 11.5263 101.581 11.3995 101.094 11.3995C100.627 11.3995 100.23 11.5223 99.9044 11.7678C99.5784 12.0133 99.3309 12.3574 99.1618 12.8001C98.9968 13.2428 98.9143 13.764 98.9143 14.3636ZM50.9343 39V26.6364H55.6673C56.5607 26.6364 57.3033 26.7772 57.8949 27.0589C58.4905 27.3366 58.9353 27.717 59.229 28.1999C59.5269 28.6829 59.6758 29.2302 59.6758 29.842C59.6758 30.3451 59.5792 30.7757 59.386 31.1339C59.1928 31.488 58.9332 31.7758 58.6072 31.9972C58.2812 32.2185 57.917 32.3775 57.5146 32.4741V32.5948C57.9532 32.619 58.3738 32.7538 58.7763 32.9993C59.1828 33.2408 59.5148 33.5829 59.7724 34.0256C60.0299 34.4683 60.1587 35.0036 60.1587 35.6314C60.1587 36.2713 60.0038 36.8468 59.6939 37.358C59.384 37.8651 58.9171 38.2655 58.2933 38.5593C57.6695 38.8531 56.8847 39 55.9389 39H50.9343ZM53.174 37.1286H55.5827C56.3957 37.1286 56.9813 36.9736 57.3395 36.6637C57.7017 36.3498 57.8828 35.9473 57.8828 35.4563C57.8828 35.0901 57.7923 34.7601 57.6112 34.4663C57.43 34.1684 57.1725 33.935 56.8384 33.766C56.5044 33.5929 56.1059 33.5064 55.6431 33.5064H53.174V37.1286ZM53.174 31.8945H55.3896C55.7759 31.8945 56.1241 31.8241 56.4339 31.6832C56.7438 31.5384 56.9873 31.3351 57.1644 31.0735C57.3455 30.8079 57.4361 30.494 57.4361 30.1317C57.4361 29.6528 57.267 29.2584 56.929 28.9485C56.5949 28.6386 56.0979 28.4837 55.4379 28.4837H53.174V31.8945ZM67.9207 35.1001V29.7273H70.1061V39H67.9871V37.3519H67.8905C67.6813 37.8711 67.3372 38.2957 66.8582 38.6257C66.3833 38.9557 65.7977 39.1207 65.1015 39.1207C64.4938 39.1207 63.9565 38.9859 63.4896 38.7163C63.0268 38.4426 62.6646 38.0462 62.403 37.527C62.1414 37.0038 62.0106 36.3719 62.0106 35.6314V29.7273H64.1959V35.2933C64.1959 35.8809 64.3569 36.3478 64.6789 36.6939C65.0009 37.04 65.4234 37.2131 65.9466 37.2131C66.2686 37.2131 66.5805 37.1346 66.8824 36.9776C67.1842 36.8207 67.4317 36.5872 67.6249 36.2773C67.8221 35.9634 67.9207 35.571 67.9207 35.1001ZM79.6822 32.1783L77.69 32.3956C77.6336 32.1944 77.535 32.0052 77.3942 31.8281C77.2573 31.651 77.0722 31.5082 76.8388 31.3995C76.6054 31.2908 76.3196 31.2365 75.9815 31.2365C75.5268 31.2365 75.1444 31.3351 74.8345 31.5323C74.5286 31.7295 74.3777 31.9851 74.3817 32.299C74.3777 32.5687 74.4763 32.788 74.6776 32.957C74.8828 33.1261 75.2209 33.2649 75.6918 33.3736L77.2734 33.7116C78.1508 33.9008 78.8028 34.2006 79.2294 34.6112C79.66 35.0217 79.8774 35.5589 79.8814 36.223C79.8774 36.8066 79.7063 37.3217 79.3683 37.7685C79.0342 38.2112 78.5694 38.5573 77.9737 38.8068C77.3781 39.0563 76.6939 39.1811 75.9212 39.1811C74.7862 39.1811 73.8726 38.9437 73.1804 38.4688C72.4882 37.9898 72.0756 37.3237 71.9428 36.4705L74.0739 36.2653C74.1705 36.6838 74.3757 36.9998 74.6896 37.2131C75.0036 37.4264 75.4121 37.533 75.9151 37.533C76.4343 37.533 76.8509 37.4264 77.1648 37.2131C77.4827 36.9998 77.6417 36.7362 77.6417 36.4222C77.6417 36.1566 77.5391 35.9373 77.3338 35.7642C77.1326 35.5911 76.8187 35.4583 76.392 35.3658L74.8104 35.0337C73.9209 34.8486 73.2629 34.5367 72.8363 34.098C72.4097 33.6553 72.1984 33.0959 72.2024 32.4197C72.1984 31.8482 72.3533 31.3532 72.6673 30.9347C72.9852 30.5121 73.4259 30.1861 73.9893 29.9567C74.5568 29.7232 75.2108 29.6065 75.9513 29.6065C77.038 29.6065 77.8932 29.8379 78.517 30.3008C79.1449 30.7636 79.5333 31.3894 79.6822 32.1783ZM81.6834 39V29.7273H83.8688V39H81.6834ZM82.7821 28.4112C82.436 28.4112 82.1382 28.2965 81.8887 28.0671C81.6391 27.8337 81.5144 27.554 81.5144 27.228C81.5144 26.898 81.6391 26.6183 81.8887 26.3888C82.1382 26.1554 82.436 26.0387 82.7821 26.0387C83.1323 26.0387 83.4301 26.1554 83.6756 26.3888C83.9251 26.6183 84.0499 26.898 84.0499 27.228C84.0499 27.554 83.9251 27.8337 83.6756 28.0671C83.4301 28.2965 83.1323 28.4112 82.7821 28.4112ZM88.3014 33.5668V39H86.116V29.7273H88.2048V31.3029H88.3135C88.5268 30.7837 88.8669 30.3712 89.3337 30.0653C89.8046 29.7595 90.3862 29.6065 91.0784 29.6065C91.7183 29.6065 92.2757 29.7434 92.7506 30.017C93.2296 30.2907 93.5998 30.6871 93.8614 31.2063C94.127 31.7255 94.2578 32.3554 94.2538 33.0959V39H92.0684V33.4339C92.0684 32.8142 91.9075 32.3292 91.5855 31.979C91.2675 31.6289 90.8269 31.4538 90.2634 31.4538C89.8811 31.4538 89.541 31.5384 89.2432 31.7074C88.9494 31.8724 88.718 32.1119 88.5489 32.4258C88.3839 32.7397 88.3014 33.12 88.3014 33.5668ZM100.581 39.1811C99.6508 39.1811 98.8479 38.9879 98.1718 38.6016C97.4997 38.2112 96.9825 37.6598 96.6203 36.9474C96.2581 36.2311 96.077 35.3879 96.077 34.418C96.077 33.4641 96.2581 32.627 96.6203 31.9066C96.9865 31.1822 97.4977 30.6187 98.1537 30.2163C98.8097 29.8098 99.5804 29.6065 100.466 29.6065C101.037 29.6065 101.577 29.6991 102.084 29.8842C102.595 30.0653 103.046 30.3471 103.436 30.7294C103.83 31.1117 104.14 31.5987 104.366 32.1903C104.591 32.7779 104.704 33.4782 104.704 34.2912V34.9613H97.1032V33.4883H102.609C102.605 33.0697 102.514 32.6974 102.337 32.3714C102.16 32.0414 101.913 31.7818 101.595 31.5927C101.281 31.4035 100.915 31.3089 100.496 31.3089C100.049 31.3089 99.6569 31.4176 99.3188 31.6349C98.9807 31.8482 98.7171 32.13 98.528 32.4801C98.3428 32.8262 98.2483 33.2066 98.2442 33.6211V34.907C98.2442 35.4463 98.3428 35.9091 98.54 36.2955C98.7372 36.6778 99.0129 36.9716 99.3671 37.1768C99.7213 37.3781 100.136 37.4787 100.611 37.4787C100.929 37.4787 101.216 37.4344 101.474 37.3459C101.732 37.2533 101.955 37.1185 102.144 36.9414C102.333 36.7643 102.476 36.545 102.573 36.2834L104.613 36.5128C104.484 37.0521 104.239 37.523 103.877 37.9254C103.518 38.3239 103.06 38.6338 102.5 38.8551C101.941 39.0724 101.301 39.1811 100.581 39.1811ZM113.881 32.1783L111.889 32.3956C111.833 32.1944 111.734 32.0052 111.593 31.8281C111.457 31.651 111.271 31.5082 111.038 31.3995C110.805 31.2908 110.519 31.2365 110.181 31.2365C109.726 31.2365 109.344 31.3351 109.034 31.5323C108.728 31.7295 108.577 31.9851 108.581 32.299C108.577 32.5687 108.676 32.788 108.877 32.957C109.082 33.1261 109.42 33.2649 109.891 33.3736L111.473 33.7116C112.35 33.9008 113.002 34.2006 113.429 34.6112C113.859 35.0217 114.077 35.5589 114.081 36.223C114.077 36.8066 113.906 37.3217 113.567 37.7685C113.233 38.2112 112.769 38.5573 112.173 38.8068C111.577 39.0563 110.893 39.1811 110.12 39.1811C108.985 39.1811 108.072 38.9437 107.38 38.4688C106.687 37.9898 106.275 37.3237 106.142 36.4705L108.273 36.2653C108.37 36.6838 108.575 36.9998 108.889 37.2131C109.203 37.4264 109.611 37.533 110.114 37.533C110.634 37.533 111.05 37.4264 111.364 37.2131C111.682 36.9998 111.841 36.7362 111.841 36.4222C111.841 36.1566 111.738 35.9373 111.533 35.7642C111.332 35.5911 111.018 35.4583 110.591 35.3658L109.01 35.0337C108.12 34.8486 107.462 34.5367 107.036 34.098C106.609 33.6553 106.398 33.0959 106.402 32.4197C106.398 31.8482 106.553 31.3532 106.866 30.9347C107.184 30.5121 107.625 30.1861 108.189 29.9567C108.756 29.7232 109.41 29.6065 110.151 29.6065C111.237 29.6065 112.092 29.8379 112.716 30.3008C113.344 30.7636 113.732 31.3894 113.881 32.1783ZM123.211 32.1783L121.219 32.3956C121.163 32.1944 121.064 32.0052 120.923 31.8281C120.787 31.651 120.602 31.5082 120.368 31.3995C120.135 31.2908 119.849 31.2365 119.511 31.2365C119.056 31.2365 118.674 31.3351 118.364 31.5323C118.058 31.7295 117.907 31.9851 117.911 32.299C117.907 32.5687 118.006 32.788 118.207 32.957C118.412 33.1261 118.75 33.2649 119.221 33.3736L120.803 33.7116C121.68 33.9008 122.332 34.2006 122.759 34.6112C123.189 35.0217 123.407 35.5589 123.411 36.223C123.407 36.8066 123.236 37.3217 122.898 37.7685C122.564 38.2112 122.099 38.5573 121.503 38.8068C120.907 39.0563 120.223 39.1811 119.45 39.1811C118.316 39.1811 117.402 38.9437 116.71 38.4688C116.017 37.9898 115.605 37.3237 115.472 36.4705L117.603 36.2653C117.7 36.6838 117.905 36.9998 118.219 37.2131C118.533 37.4264 118.941 37.533 119.444 37.533C119.964 37.533 120.38 37.4264 120.694 37.2131C121.012 36.9998 121.171 36.7362 121.171 36.4222C121.171 36.1566 121.068 35.9373 120.863 35.7642C120.662 35.5911 120.348 35.4583 119.921 35.3658L118.34 35.0337C117.45 34.8486 116.792 34.5367 116.366 34.098C115.939 33.6553 115.728 33.0959 115.732 32.4197C115.728 31.8482 115.883 31.3532 116.197 30.9347C116.515 30.5121 116.955 30.1861 117.519 29.9567C118.086 29.7232 118.74 29.6065 119.481 29.6065C120.567 29.6065 121.423 29.8379 122.046 30.3008C122.674 30.7636 123.063 31.3894 123.211 32.1783ZM129.526 39V26.6364H134.162C135.112 26.6364 135.909 26.8134 136.553 27.1676C137.201 27.5218 137.69 28.0088 138.02 28.6286C138.354 29.2443 138.521 29.9446 138.521 30.7294C138.521 31.5223 138.354 32.2266 138.02 32.8423C137.686 33.4581 137.193 33.9431 136.541 34.2972C135.889 34.6474 135.086 34.8224 134.132 34.8224H131.059V32.9812H133.83C134.386 32.9812 134.841 32.8846 135.195 32.6914C135.549 32.4982 135.811 32.2326 135.98 31.8945C136.153 31.5565 136.239 31.1681 136.239 30.7294C136.239 30.2907 136.153 29.9044 135.98 29.5703C135.811 29.2363 135.547 28.9767 135.189 28.7915C134.835 28.6024 134.378 28.5078 133.818 28.5078H131.766V39H129.526ZM144.282 39.1811C143.376 39.1811 142.592 38.9819 141.927 38.5835C141.263 38.185 140.748 37.6276 140.382 36.9112C140.02 36.1948 139.839 35.3577 139.839 34.3999C139.839 33.442 140.02 32.6029 140.382 31.8825C140.748 31.162 141.263 30.6026 141.927 30.2042C142.592 29.8058 143.376 29.6065 144.282 29.6065C145.187 29.6065 145.972 29.8058 146.636 30.2042C147.3 30.6026 147.813 31.162 148.176 31.8825C148.542 32.6029 148.725 33.442 148.725 34.3999C148.725 35.3577 148.542 36.1948 148.176 36.9112C147.813 37.6276 147.3 38.185 146.636 38.5835C145.972 38.9819 145.187 39.1811 144.282 39.1811ZM144.294 37.4304C144.785 37.4304 145.195 37.2956 145.525 37.0259C145.855 36.7522 146.101 36.386 146.262 35.9272C146.427 35.4684 146.509 34.9573 146.509 34.3938C146.509 33.8263 146.427 33.3132 146.262 32.8544C146.101 32.3916 145.855 32.0233 145.525 31.7496C145.195 31.476 144.785 31.3391 144.294 31.3391C143.791 31.3391 143.372 31.476 143.038 31.7496C142.708 32.0233 142.461 32.3916 142.296 32.8544C142.135 33.3132 142.054 33.8263 142.054 34.3938C142.054 34.9573 142.135 35.4684 142.296 35.9272C142.461 36.386 142.708 36.7522 143.038 37.0259C143.372 37.2956 143.791 37.4304 144.294 37.4304ZM150.58 39V29.7273H152.699V31.2727H152.795C152.964 30.7375 153.254 30.3249 153.665 30.0352C154.079 29.7414 154.552 29.5945 155.083 29.5945C155.204 29.5945 155.339 29.6005 155.488 29.6126C155.641 29.6206 155.768 29.6347 155.868 29.6548V31.6651C155.776 31.6329 155.629 31.6048 155.428 31.5806C155.23 31.5524 155.039 31.5384 154.854 31.5384C154.456 31.5384 154.097 31.6249 153.779 31.7979C153.466 31.967 153.218 32.2024 153.037 32.5043C152.856 32.8061 152.765 33.1542 152.765 33.5487V39H150.58ZM162.449 29.7273V31.4176H157.118V29.7273H162.449ZM158.434 27.5057H160.619V36.2109C160.619 36.5047 160.664 36.7301 160.752 36.8871C160.845 37.04 160.965 37.1446 161.114 37.201C161.263 37.2573 161.428 37.2855 161.609 37.2855C161.746 37.2855 161.871 37.2754 161.984 37.2553C162.1 37.2352 162.189 37.2171 162.249 37.201L162.618 38.9094C162.501 38.9497 162.334 38.994 162.116 39.0423C161.903 39.0906 161.642 39.1187 161.332 39.1268C160.784 39.1429 160.291 39.0604 159.853 38.8793C159.414 38.6941 159.066 38.4084 158.808 38.022C158.555 37.6357 158.43 37.1527 158.434 36.5732V27.5057ZM166.945 39.1871C166.357 39.1871 165.828 39.0825 165.357 38.8732C164.89 38.6599 164.52 38.346 164.246 37.9315C163.976 37.5169 163.842 37.0058 163.842 36.3981C163.842 35.8749 163.938 35.4422 164.131 35.1001C164.324 34.758 164.588 34.4844 164.922 34.2791C165.256 34.0739 165.632 33.9189 166.051 33.8143C166.474 33.7056 166.91 33.6271 167.361 33.5788C167.904 33.5225 168.345 33.4722 168.683 33.4279C169.021 33.3796 169.267 33.3072 169.42 33.2106C169.577 33.11 169.655 32.955 169.655 32.7457V32.7095C169.655 32.2547 169.52 31.9026 169.251 31.6531C168.981 31.4035 168.593 31.2788 168.085 31.2788C167.55 31.2788 167.126 31.3955 166.812 31.6289C166.502 31.8623 166.293 32.138 166.184 32.456L164.143 32.1662C164.304 31.6027 164.57 31.1319 164.94 30.7536C165.311 30.3712 165.763 30.0855 166.299 29.8963C166.834 29.7031 167.425 29.6065 168.073 29.6065C168.52 29.6065 168.965 29.6589 169.408 29.7635C169.85 29.8681 170.255 30.0412 170.621 30.2827C170.987 30.5201 171.281 30.8441 171.502 31.2546C171.728 31.6651 171.84 32.1783 171.84 32.794V39H169.74V37.7262H169.667C169.534 37.9838 169.347 38.2253 169.106 38.4506C168.868 38.672 168.568 38.8511 168.206 38.9879C167.848 39.1207 167.427 39.1871 166.945 39.1871ZM167.512 37.5813C167.951 37.5813 168.331 37.4948 168.653 37.3217C168.975 37.1446 169.222 36.9112 169.396 36.6214C169.573 36.3317 169.661 36.0157 169.661 35.6737V34.581C169.593 34.6373 169.476 34.6896 169.311 34.7379C169.15 34.7862 168.969 34.8285 168.768 34.8647C168.566 34.9009 168.367 34.9331 168.17 34.9613C167.973 34.9895 167.802 35.0136 167.657 35.0337C167.331 35.078 167.039 35.1504 166.782 35.2511C166.524 35.3517 166.321 35.4925 166.172 35.6737C166.023 35.8507 165.948 36.0801 165.948 36.3619C165.948 36.7643 166.095 37.0682 166.389 37.2734C166.683 37.4787 167.057 37.5813 167.512 37.5813ZM176.223 26.6364V39H174.038V26.6364H176.223Z" fill="#333333"/>
</svg>
