<svg width="46" height="46" viewBox="0 0 46 46" fill="none" xmlns="http://www.w3.org/2000/svg">
<path d="M42.7368 19.3056C41.5386 19.3056 40.5401 20.3041 40.5401 21.5023V28.1589L39.6082 29.1573C39.4751 28.8245 39.2754 28.4917 39.0091 28.2254L38.9425 28.1589C38.0772 27.2935 36.5462 27.3601 35.7474 28.3586L31.9531 33.1513C31.6203 33.6173 31.4872 34.1498 31.4872 34.6823V38.8094H30.8215C30.4221 38.8094 30.0227 39.1422 30.0227 39.6082V44.0681C30.0227 44.4675 30.3555 44.8669 30.8215 44.8669H40.9395C41.3389 44.8669 41.7383 44.534 41.7383 44.0681V39.6082C41.7383 39.2088 41.4055 38.8094 40.9395 38.8094H40.0076V37.7443C40.0076 37.4115 40.0741 37.0787 40.2738 36.8124L44.6006 30.8881C44.8003 30.6218 44.8669 30.2224 44.8669 29.8896V21.5023C44.9335 20.2375 43.935 19.3056 42.7368 19.3056ZM40.407 43.6021H31.4206V40.2738H40.407V43.6021ZM43.6021 29.9561C43.6021 30.0227 43.6021 30.1558 43.5356 30.2224L39.2088 36.1468C38.876 36.6793 38.7428 37.2118 38.7428 37.8775V38.9425H32.885V34.8154C32.885 34.5492 32.9516 34.2829 33.0847 34.0832L36.8124 29.357C37.0787 29.0242 37.6778 28.8911 38.0106 29.2905L38.0772 29.357C38.5431 29.7564 38.5431 30.4887 38.1437 30.9546L37.4781 31.7534C37.2118 32.0197 37.2784 32.4191 37.5446 32.6853C37.8109 32.9516 38.2103 32.885 38.4766 32.6188L41.6052 29.0242C41.7383 28.8911 41.8049 28.6914 41.8049 28.5583V21.5023C41.8049 21.0363 42.2042 20.6369 42.6702 20.6369C43.1362 20.6369 43.5356 21.0363 43.5356 21.5023V29.9561H43.6021Z" fill="#2D68FF" stroke="#2D68FF" stroke-width="0.3"/>
<path d="M15.0454 38.9425H14.3797V34.8154C14.3797 34.2829 14.18 33.7504 13.8472 33.2179L10.1195 28.4917C9.32073 27.4932 7.85628 27.3601 6.92436 28.292C6.65809 28.5583 6.4584 28.8911 6.32527 29.2239L5.45991 28.1589V21.5023C5.45991 20.3041 4.46142 19.3056 3.26324 19.3056C2.06505 19.3056 1 20.3041 1 21.5023V30.0227C1 30.3555 1.13313 30.6884 1.33283 31.0212L5.59304 36.879C5.79274 37.1452 5.8593 37.5446 5.8593 37.8775V38.9425H4.92738C4.52799 38.9425 4.12859 39.2753 4.12859 39.7413V44.2012C4.12859 44.6006 4.46142 45 4.92738 45H15.0454C15.4448 45 15.8442 44.6672 15.8442 44.2012V39.7413C15.8442 39.2753 15.5113 38.9425 15.0454 38.9425ZM6.65809 36.1468L2.39788 30.289C2.33132 30.2224 2.33132 30.0893 2.33132 30.0227V21.5023C2.33132 21.0363 2.73071 20.6369 3.19667 20.6369C3.66263 20.6369 4.06203 21.0363 4.06203 21.5023V28.3586C4.06203 28.4917 4.12859 28.7579 4.26173 28.8245L7.39032 32.4191C7.65658 32.6853 8.05598 32.7519 8.32224 32.4856C8.5885 32.2194 8.65507 31.82 8.38881 31.5537L7.72315 30.7549C7.32375 30.289 7.39032 29.5567 7.78971 29.1573L7.85628 29.0908C8.18911 28.7579 8.7882 28.8245 9.05446 29.1573L12.7822 33.8835C12.9153 34.0832 13.0484 34.416 13.0484 34.6823V38.9425H7.19062V37.8775C7.19062 37.2784 6.99092 36.6793 6.65809 36.1468ZM14.5129 43.6021H5.52648V40.2738H14.5129V43.6021Z" fill="#2D68FF" stroke="#2D68FF" stroke-width="0.3"/>
<path d="M32.419 29.357C32.6187 29.357 32.8184 29.2905 32.9515 29.1573L35.3479 26.761C35.6141 26.4947 35.6141 26.1619 35.4144 25.8956L33.484 23.3661C34.2162 22.2345 34.7488 20.9697 35.015 19.5719L38.1436 19.1725C38.4764 19.1059 38.7427 18.8396 38.7427 18.5068V15.112C38.7427 14.7791 38.4764 14.5129 38.1436 14.4463L35.015 14.0469C34.6822 12.7156 34.2162 11.4508 33.484 10.2526L35.3479 7.78971C35.5475 7.52345 35.5475 7.05749 35.2813 6.85779L32.8849 4.46142C32.6852 4.19516 32.2858 4.12859 32.0196 4.32829L29.4901 6.32526C28.3584 5.59304 27.0937 5.06051 25.7624 4.79425L25.363 1.59909C25.2964 1.26626 25.0302 1 24.6973 1H21.3025C20.9696 1 20.7034 1.26626 20.6368 1.59909L20.2374 4.79425C18.9061 5.12708 17.6413 5.59304 16.5097 6.32526L13.9137 4.32829C13.6474 4.12859 13.248 4.12859 13.0483 4.39486L10.6519 6.79123C10.3857 7.05749 10.3857 7.39032 10.5854 7.65658L12.5158 10.1861C11.7836 11.3177 11.251 12.5825 10.9848 13.9803L7.85617 14.3797C7.52334 14.4463 7.25708 14.7126 7.25708 15.0454V18.4402C7.25708 18.7731 7.52334 19.0393 7.85617 19.1059L10.9848 19.5053C11.3176 20.8366 11.7836 22.1014 12.5158 23.2995L10.5854 25.829C10.3857 26.0953 10.3857 26.4947 10.6519 26.6944L13.0483 29.0908C13.3146 29.357 13.6474 29.357 13.9137 29.1573L16.4432 27.2269C17.5748 27.9592 18.8395 28.4917 20.1708 28.7579L20.5702 31.9531C20.6368 32.2859 20.9031 32.5522 21.2359 32.5522H24.6308C24.9636 32.5522 25.2298 32.2859 25.2964 31.9531L25.6958 28.7579C27.0271 28.4251 28.2919 27.9592 29.4235 27.2269L31.8864 29.1573C32.0861 29.2905 32.2858 29.357 32.419 29.357ZM29.1572 25.9622C27.8925 26.8275 26.4946 27.3601 25.0302 27.6929C24.7639 27.7595 24.5642 27.9592 24.4976 28.292L24.0982 31.354H21.835L21.4356 28.292C21.369 28.0257 21.1693 27.7595 20.9031 27.6929C19.4386 27.4266 18.0407 26.8275 16.776 25.9622C16.5097 25.829 16.2435 25.829 15.9772 25.9622L13.5143 27.826L11.9167 26.2284L13.7805 23.8321C13.9802 23.5658 13.9802 23.233 13.7805 22.9667C12.9152 21.702 12.3826 20.3707 12.1164 18.8396C12.0498 18.5734 11.8501 18.3737 11.5839 18.3071L8.52183 17.9077V15.6445L11.5839 15.2451C11.8501 15.1785 12.1164 14.9788 12.1164 14.7126C12.3826 13.1815 12.9817 11.8502 13.8471 10.5855C13.9802 10.3192 13.9802 10.053 13.8471 9.78669L11.9833 7.32375L13.5808 5.72617L15.9772 7.59002C16.1769 7.78971 16.5763 7.78971 16.8426 7.59002C18.1073 6.72466 19.4386 6.19213 20.9031 5.92587C21.1693 5.8593 21.369 5.65961 21.4356 5.32678L21.835 2.33132H24.0982L24.4976 5.39334C24.5642 5.65961 24.7639 5.92587 25.0302 5.99244C26.4946 6.2587 27.8925 6.85779 29.1572 7.72315C29.4235 7.85628 29.6898 7.85628 29.956 7.72315L32.419 5.8593L34.0165 7.45688L32.1527 9.91982C31.953 10.1195 31.953 10.4523 32.1527 10.7186C33.0181 11.9834 33.5506 13.3812 33.8834 14.8457C33.95 15.112 34.1497 15.3116 34.4159 15.3782L37.478 15.7776V18.0408L34.3494 18.3071C34.0831 18.3737 33.8168 18.5734 33.8168 18.8396C33.5506 20.3707 32.9515 21.702 32.0861 22.9667C31.953 23.233 31.953 23.4992 32.0861 23.7655L33.95 26.2284L32.3524 27.826L29.8895 25.9622C29.6898 25.7625 29.4235 25.7625 29.1572 25.9622Z" fill="#2D68FF" stroke="#2D68FF" stroke-width="0.3"/>
<path d="M22.9666 8.5885C18.4402 8.5885 14.7791 12.2496 14.7791 16.7761C14.7791 21.3026 18.4402 24.9637 22.9666 24.9637C27.4931 24.9637 31.1542 21.3026 31.1542 16.7761C31.1542 12.2496 27.4931 8.5885 22.9666 8.5885ZM22.9666 23.6989C19.1724 23.6989 16.1104 20.6369 16.1104 16.8427C16.1104 13.0484 19.1724 9.98638 22.9666 9.98638C26.7609 9.98638 29.8229 13.0484 29.8229 16.8427C29.8229 20.5703 26.7609 23.6989 22.9666 23.6989Z" fill="#2D68FF" stroke="#2D68FF" stroke-width="0.3"/>
<path d="M23.5658 15.9773L23.4992 13.5809C24.1649 13.6475 24.764 13.9138 25.3631 14.3132L26.2284 13.115C25.3631 12.5159 24.4977 12.2496 23.5658 12.1831V11.5174H22.767V12.1831C21.9682 12.2496 21.236 12.4493 20.77 12.9818C20.2375 13.4478 19.9713 14.0469 19.9713 14.7791C19.9713 15.5113 20.171 16.0439 20.6369 16.4433C21.1029 16.8427 21.7685 17.1089 22.767 17.3752V19.8381C22.0348 19.705 21.236 19.3722 20.5703 18.7065L19.6384 19.8381C20.5703 20.6369 21.6354 21.1029 22.767 21.236V22.1679H23.5658V21.236C24.4312 21.1694 25.1634 20.9697 25.6959 20.4372C26.2284 19.9713 26.4947 19.3722 26.4947 18.6399C26.4947 17.9077 26.295 17.3086 25.829 16.9092C25.23 16.5098 24.4977 16.177 23.5658 15.9773ZM22.7005 15.711C22.2345 15.5779 21.9017 15.3782 21.702 15.2451C21.5023 15.0454 21.4357 14.8457 21.4357 14.5794C21.4357 14.3132 21.5688 14.0469 21.7685 13.8472C21.9682 13.6475 22.3011 13.5144 22.7005 13.5144V15.711ZM24.4977 19.4387C24.2315 19.6384 23.9652 19.7716 23.4992 19.7716V17.4418C24.0318 17.5749 24.3646 17.7746 24.5643 17.9077C24.764 18.1074 24.8306 18.3071 24.8306 18.6399C24.8306 19.0393 24.6974 19.239 24.4977 19.4387Z" fill="#2D68FF" stroke="#2D68FF" stroke-width="0.3"/>
</svg>
