<svg width="42" height="37" viewBox="0 0 42 37" fill="none" xmlns="http://www.w3.org/2000/svg">
<g clip-path="url(#clip0_18_54)">
<path d="M7.71341 28.1434C7.71341 26.7887 7.71793 25.4339 7.7098 24.0792C7.70799 23.8289 7.76402 23.6174 7.89416 23.4023C9.96011 19.9898 13.4196 18.5935 17.4946 19.5136C19.246 19.9094 20.8321 20.6758 22.3766 21.5623C23.5876 22.2573 24.7968 22.955 26.091 23.4945C26.8637 23.8172 27.1709 24.6323 26.8546 25.4077C26.5537 26.1452 25.8144 26.4814 25.0354 26.1976C23.5117 25.6427 21.9961 25.0679 20.4769 24.5013C20.3504 24.4543 20.2257 24.3983 20.0955 24.3648C19.6907 24.2609 19.3581 24.4317 19.2252 24.8031C19.1159 25.1077 19.2939 25.5008 19.6464 25.6463C20.1733 25.8641 20.711 26.0557 21.2451 26.2564C22.3413 26.6676 23.4376 27.0779 24.5347 27.4863C26.457 28.2021 28.4199 26.7941 28.3485 24.7336C28.3367 24.3883 28.4714 24.3214 28.7669 24.3296C31.301 24.4055 33.5992 23.6943 35.6832 22.2573C36.4008 21.7621 37.1356 21.2912 37.873 20.8267C38.9476 20.1507 40.2761 20.2356 41.2403 21.0237C41.7076 21.406 41.7835 21.913 41.4075 22.3667C38.8129 25.4945 35.9851 28.3521 32.5319 30.5753C29.5577 32.4903 26.4046 33.141 22.936 32.5563C20.8565 32.2057 18.8231 31.6905 16.8005 31.1103C13.792 30.2482 11.0374 30.8555 8.48521 32.587C8.30807 32.7072 8.15625 32.944 7.89597 32.8121C7.64111 32.6828 7.71522 32.4226 7.71522 32.2048C7.71161 30.8501 7.71341 29.4954 7.71341 28.1406V28.1434Z" fill="#012E57"/>
<path d="M28.9206 20.6559C28.1614 20.6622 27.5352 20.5863 26.9098 20.4932C26.5058 20.4336 26.2229 20.232 26.0123 19.8886C25.1077 18.4092 23.8307 17.5615 22.0513 17.5705C21.622 17.5723 21.2605 17.4142 20.9839 17.078C20.2935 16.2366 19.7079 15.332 19.2885 14.3234C19.1159 13.9095 19.1349 13.5245 19.3527 13.116C20.2329 11.4639 20.223 9.83902 19.1376 8.26923C18.9071 7.93575 18.862 7.59052 18.9912 7.20101C19.3337 6.16532 19.8443 5.2164 20.4444 4.31085C20.6884 3.94303 21.0273 3.76499 21.4729 3.77493C23.6319 3.82283 25.1547 2.87571 26.0096 0.877542C26.1904 0.454592 26.5329 0.228657 26.9775 0.157262C27.9924 -0.00541111 29.011 -0.0569243 30.034 0.0714068C30.5003 0.13015 30.832 0.357892 31.0417 0.79711C32.0566 2.92813 33.6227 3.80114 35.9472 3.54267C36.3385 3.49929 36.6602 3.6231 36.9087 3.92043C37.5703 4.71392 38.0384 5.62037 38.4225 6.5711C38.596 6.99947 38.3873 7.35284 38.1649 7.7062C37.3796 8.95607 37.1401 10.2882 37.6001 11.7152C37.7393 12.149 37.9526 12.5457 38.2282 12.9054C38.5228 13.2895 38.5752 13.6989 38.3882 14.1345C37.9779 15.0897 37.5097 16.0079 36.8446 16.8222C36.531 17.2063 36.1613 17.3979 35.6787 17.3862C33.7493 17.341 32.3792 18.2275 31.4827 19.9004C31.2974 20.2465 31.0254 20.4327 30.6359 20.4905C30.025 20.5809 29.4149 20.6604 28.9215 20.655L28.9206 20.6559ZM28.748 4.57564C25.5713 4.57022 22.9875 7.1269 22.9803 10.2855C22.9731 13.4278 25.5786 16.0432 28.719 16.045C31.8559 16.0468 34.4415 13.4721 34.4497 10.3379C34.4578 7.13955 31.9264 4.58197 28.748 4.57564Z" fill="#012E57"/>
<path d="M6.18429 29.6038C6.18429 31.8315 6.18429 34.0583 6.18339 36.2861C6.18339 36.8735 6.05867 36.9973 5.47033 36.9982C3.88969 37 2.30996 37 0.729318 36.9982C0.109352 36.9982 0.000903739 36.8852 0 36.2553C0 31.8153 0 27.3761 0 22.936C0 22.2844 0.0885665 22.1931 0.72028 22.1922C2.31538 22.1904 3.91138 22.1895 5.50648 22.1922C6.09663 22.1931 6.18339 22.2844 6.18429 22.8755C6.18429 25.1176 6.18429 27.3598 6.18429 29.6029V29.6038Z" fill="#012E57"/>
</g>
<defs>
<clipPath id="clip0_18_54">
<rect width="41.6461" height="37" fill="white"/>
</clipPath>
</defs>
</svg>
