<svg xmlns="http://www.w3.org/2000/svg" width="44" height="44" viewBox="0 0 44 44"
                                    fill="none">
    <path
        d="M38.1998 30.5C37.7998 30.1 37.2998 30.1 36.8998 30.5L28.6998 38.7C28.2998 39.1 28.2998 39.6 28.6998 40C29.0998 40.4 29.5998 40.4 29.9998 40L38.1998 31.8C38.5998 31.5 38.5998 30.9 38.1998 30.5ZM36.8998 35.1L33.1998 38.8C32.7998 39.2 32.7998 39.7 33.1998 40.1C33.5998 40.5 34.0998 40.5 34.4998 40.1L38.1998 36.4C38.3998 36.2 38.4998 35.8 38.3998 35.5C38.2998 35.2 38.0998 34.9 37.6998 34.8C37.4998 34.8 37.1998 34.9 36.8998 35.1ZM43.8998 9.7C43.9998 9.9 43.9998 10 43.9998 10.1V13.8C44.0998 16.6 41.8997 18.9 39.0998 18.9H38.9998C37.2998 18.9 35.6998 18.1 34.6998 16.6C33.6998 18 32.0998 18.9 30.3998 18.9C28.6998 18.9 27.0998 18.1 26.1998 16.7C24.5998 19 21.3998 19.7 19.0998 18.1C18.5998 17.7 18.0998 17.3 17.6998 16.7C16.0998 19 12.9998 19.6 10.5998 18.1C10.0998 17.7 9.59975 17.3 9.19975 16.7C7.69975 19 4.49975 19.6 2.19975 18.1C0.799751 17.1 -0.100249 15.5 -0.000248798 13.8V10.1C-0.000248798 9.9 -0.000248797 9.8 0.0997512 9.6L5.59975 0.4C5.79975 0.2 6.09975 0 6.39975 0H37.5998C37.8997 0 38.2998 0.2 38.4998 0.4L43.8998 9.7ZM36.5998 16.1C37.1997 16.7 38.0998 17.1 38.9998 17.1C40.6998 17.1 42.1998 15.7 42.1998 14V11H6.39975C5.89975 11 5.49975 10.6 5.49975 10.1C5.49975 9.6 5.89975 9.2 6.39975 9.2H41.3998L36.9998 1.8H32.3998L33.8998 6.1C34.0998 6.6 33.7998 7.1 33.3998 7.3H32.9998C32.5998 7.3 32.1997 7.1 32.0998 6.7L30.4998 1.8H25.7998L26.5998 6.2C26.5998 6.4 26.5998 6.7 26.3998 6.9C26.2998 7.1 25.9998 7.2 25.7998 7.3H25.6998C25.1998 7.3 24.8998 7 24.7998 6.5L23.9998 1.8H19.9998L19.1998 6.5C19.0998 6.9 18.6998 7.3 18.2998 7.3H18.1998C17.9998 7.3 17.6998 7.1 17.5998 6.9C17.4998 6.7 17.3998 6.4 17.3998 6.2L18.1998 1.8H13.4998L11.8998 6.7C11.7998 7.1 11.3998 7.3 10.9998 7.3H10.6998C10.4998 7.2 10.2998 7.1 10.1998 6.8C10.0998 6.6 10.0998 6.3 10.1998 6.1L11.5998 1.8H6.89975L1.79975 10.3V13.7C1.69975 15.4 3.09975 16.9 4.79975 17H4.99975C6.79975 17 8.19975 15.6 8.19975 13.9V13.8C8.19975 13.5 8.29975 13.3 8.49975 13.1C8.69975 12.9 8.89975 12.8 9.19975 12.8C9.69975 12.8 10.0998 13.2 10.0998 13.7C9.99975 15.5 11.3998 17.1 13.1998 17.2C14.9998 17.3 16.5998 15.9 16.6998 14.1V13.8C16.6998 13.3 17.0998 12.9 17.5998 12.9C18.0998 12.9 18.4998 13.3 18.4998 13.8C18.4998 15.6 19.9998 17.1 21.7998 17.1C23.5998 17.1 25.0998 15.6 25.0998 13.8C25.0998 13.3 25.4998 12.9 25.9998 12.9C26.4998 12.9 26.8998 13.3 26.8998 13.8C26.7998 15.7 28.1998 17.2 30.0998 17.3C31.9998 17.4 33.4998 16 33.5998 14.1V13.7C33.5998 13.2 33.9998 12.8 34.4998 12.8C34.9998 12.8 35.3998 13.2 35.3998 13.7C35.5998 14.6 35.9998 15.4 36.5998 16.1Z"
        fill="#2D68FF" />
    <path
        d="M43.1 42.2H42.2V22C42.2 21.5 41.8 21.1 41.3 21.1C40.8 21.1 40.4 21.5 40.4 22V42.2H18.4V22C18.4 21.5 18 21.1 17.5 21.1C17 21.1 16.6 21.5 16.6 22V42.2H3.7V22C3.7 21.5 3.3 21.1 2.8 21.1C2.3 21.1 1.8 21.5 1.8 22V42.2H0.9C0.4 42.2 0 42.6 0 43.1C0 43.6 0.4 44 0.9 44H43.1C43.6 44 44 43.6 44 43.1C44 42.6 43.6 42.2 43.1 42.2Z"
        fill="#2D68FF" />
    <path
        d="M10.1 32.1C7.6 32.1 5.5 30 5.5 27.5C5.5 25 7.6 22.9 10.1 22.9C12.6 22.9 14.7 25 14.7 27.5C14.7 30 12.6 32.1 10.1 32.1Z"
        fill="#2D68FF" />
</svg>