<svg xmlns="http://www.w3.org/2000/svg" width="43" height="46" viewBox="0 0 43 46" fill="none">
                                <path d="M19.9737 14.0172C22.7349 14.0172 24.9812 11.7709 24.9812 9.00968C24.9812 6.24847 22.7349 4.00215 19.9737 4.00215C17.2125 4.00215 14.9662 6.24847 14.9662 9.00968C14.9662 11.7709 17.2125 14.0172 19.9737 14.0172ZM19.9737 5.0753C22.1432 5.0753 23.9081 6.84022 23.9081 9.00968C23.9081 11.1791 22.1432 12.9441 19.9737 12.9441C17.8043 12.9441 16.0393 11.1791 16.0393 9.00968C16.0393 6.84022 17.8043 5.0753 19.9737 5.0753ZM17.8358 10.3656C17.7565 10.0804 17.9235 9.78423 18.2093 9.7049C18.495 9.62558 18.7907 9.79261 18.87 10.0784C19.0351 10.6731 19.5923 10.9185 20.0713 10.8983C20.256 10.8904 20.8675 10.8155 20.9858 10.1868C21.0193 10.006 21.004 9.90347 20.9779 9.86799C20.8902 9.74728 20.4314 9.68864 20.1279 9.65021C19.3613 9.55216 18.0777 9.38858 18.0245 7.94096C17.9915 7.04076 18.5542 6.32188 19.4376 6.11001V5.7991C19.4376 5.50298 19.6781 5.26253 19.9742 5.26253C20.2703 5.26253 20.5108 5.50298 20.5108 5.7991V6.10903C21.203 6.26965 21.846 6.74562 22.1067 7.57536C22.1954 7.85819 22.0382 8.15924 21.7554 8.24793C21.4731 8.33662 21.1715 8.17944 21.0828 7.89662C20.8897 7.2817 20.2713 7.04914 19.7599 7.13733C19.5032 7.18168 19.076 7.33935 19.0967 7.90105C19.1129 8.34894 19.3095 8.46374 20.2639 8.58593C20.836 8.65886 21.4849 8.74163 21.8451 9.23633C22.0614 9.53294 22.1269 9.91924 22.0407 10.3844C21.8914 11.1796 21.308 11.7512 20.5108 11.9202V12.2202C20.5108 12.5164 20.2703 12.7568 19.9742 12.7568C19.6781 12.7568 19.4376 12.5164 19.4376 12.2202V11.9015C18.669 11.7093 18.0506 11.1382 17.8358 10.3656ZM7.4374 16.1339H25.607C25.9031 16.1339 26.1436 16.3744 26.1436 16.6705C26.1436 16.9666 25.9031 17.2071 25.607 17.2071H7.4374C7.14128 17.2071 6.90083 16.9666 6.90083 16.6705C6.90083 16.3744 7.14128 16.1339 7.4374 16.1339ZM40.396 21.2528H34.9805V7.70249C34.9805 6.78307 34.2326 6.03561 33.3136 6.03561H29.9449V2.66688C29.9449 1.74746 29.197 1 28.278 1H11.0086C10.5568 1 10.1493 1.169 9.83006 1.48829L3.37344 7.94441C3.05415 8.2637 2.88515 8.67167 2.88515 9.123V31.1723C1.71149 32.6179 1 34.505 1 36.5666C1 41.1065 4.44954 44.8 8.6899 44.8C10.0069 44.8 11.2476 44.4432 12.3326 43.816H24.3289C24.6196 44.5107 25.3059 45 26.1051 45H40.396C41.4573 45 42.3206 44.1368 42.3206 43.0754V23.1774C42.3206 22.1161 41.4573 21.2528 40.396 21.2528ZM33.3136 7.10876C33.6413 7.10876 33.9079 7.37532 33.9079 7.70298V21.2533H29.9454V7.10876H33.3136ZM28.8718 2.66688V21.2528H26.1293C26.1381 21.2139 26.1436 21.1735 26.1436 21.1316C26.1436 20.8355 25.9031 20.595 25.607 20.595H7.4374C7.14128 20.595 6.90083 20.8355 6.90083 21.1316C6.90083 21.4277 7.14128 21.6682 7.4374 21.6682H24.9142C24.4678 22.021 24.1801 22.5659 24.1801 23.1774V25.0561H7.4374C7.14128 25.0561 6.90083 25.2966 6.90083 25.5927C6.90083 25.8888 7.14128 26.1293 7.4374 26.1293H24.1801V29.5172H12.6602C11.5009 28.7658 10.1419 28.3327 8.69039 28.3327C6.90723 28.3327 5.26401 28.9861 3.9583 30.0804V9.19149H9.40976C10.3287 9.19149 11.0766 8.44354 11.0766 7.52461V2.07315H28.278C28.6052 2.07315 28.8718 2.33922 28.8718 2.66688ZM13.9743 30.5904H24.1801V37.7072H16.3059C16.3542 37.3342 16.3803 36.9534 16.3803 36.5666C16.3803 34.2158 15.455 32.0922 13.9743 30.5904ZM10.0035 2.83144V7.52412C10.0035 7.85178 9.73693 8.11834 9.40976 8.11834H4.71709L10.0035 2.83144ZM2.07315 36.5666C2.07315 32.6184 5.0413 29.4064 8.6899 29.4064C12.3385 29.4064 15.3067 32.6184 15.3067 36.5666C15.3067 40.5148 12.3385 43.7268 8.6899 43.7268C5.0413 43.7268 2.07315 40.5148 2.07315 36.5666ZM16.0975 38.7804H24.1806V42.7428H13.7694C14.8696 41.7042 15.692 40.3344 16.0975 38.7804ZM41.2474 43.0754C41.2474 43.545 40.8656 43.9269 40.396 43.9269H26.1051C25.6356 43.9269 25.2537 43.545 25.2537 43.0754V23.1774C25.2537 22.7078 25.6356 22.326 26.1051 22.326H40.396C40.8656 22.326 41.2474 22.7078 41.2474 23.1774V43.0754ZM29.6685 28.8353H27.295C26.8018 28.8353 26.4008 29.2364 26.4008 29.7296V32.2232C26.4008 32.7165 26.8018 33.1175 27.295 33.1175H29.6685C30.1617 33.1175 30.5628 32.7165 30.5628 32.2232V29.7296C30.5628 29.2364 30.1617 28.8353 29.6685 28.8353ZM29.4896 32.0444H27.4744V29.9084H29.4901L29.4896 32.0444ZM29.6685 33.7862H27.295C26.8018 33.7862 26.4008 34.1872 26.4008 34.6804V37.1741C26.4008 37.6673 26.8018 38.0684 27.295 38.0684H29.6685C30.1617 38.0684 30.5628 37.6673 30.5628 37.1741V34.6804C30.5628 34.1872 30.1617 33.7862 29.6685 33.7862ZM29.4896 36.9953H27.4744V34.8593H29.4901L29.4896 36.9953ZM27.2955 27.7947H39.0489C39.5421 27.7947 39.9432 27.3936 39.9432 26.9004V24.0278C39.9432 23.5346 39.5421 23.1335 39.0489 23.1335H27.2955C26.8023 23.1335 26.4013 23.5346 26.4013 24.0278V26.9004C26.4013 27.3936 26.8023 27.7947 27.2955 27.7947ZM27.4744 24.2067H38.8701V26.7215H27.4744V24.2067ZM34.437 28.8353H32.0636C31.5704 28.8353 31.1693 29.2364 31.1693 29.7296V32.2232C31.1693 32.7165 31.5704 33.1175 32.0636 33.1175H34.437C34.9303 33.1175 35.3313 32.7165 35.3313 32.2232V29.7296C35.3313 29.2364 34.9303 28.8353 34.437 28.8353ZM34.2582 32.0444H32.2425V29.9084H34.2582V32.0444ZM34.437 33.7862H32.0636C31.5704 33.7862 31.1693 34.1872 31.1693 34.6804V37.1741C31.1693 37.6673 31.5704 38.0684 32.0636 38.0684H34.437C34.9303 38.0684 35.3313 37.6673 35.3313 37.1741V34.6804C35.3313 34.1872 34.9303 33.7862 34.437 33.7862ZM34.2582 36.9953H32.2425V34.8593H34.2582V36.9953ZM29.6685 38.737H27.295C26.8018 38.737 26.4008 39.1381 26.4008 39.6313V42.125C26.4008 42.6182 26.8018 43.0193 27.295 43.0193H29.6685C30.1617 43.0193 30.5628 42.6182 30.5628 42.125V39.6313C30.5628 39.1386 30.1617 38.737 29.6685 38.737ZM29.4896 41.9461H27.4744V39.8102H29.4901L29.4896 41.9461ZM34.437 38.737H32.0636C31.5704 38.737 31.1693 39.1381 31.1693 39.6313V42.125C31.1693 42.6182 31.5704 43.0193 32.0636 43.0193H34.437C34.9303 43.0193 35.3313 42.6182 35.3313 42.125V39.6313C35.3313 39.1386 34.9303 38.737 34.437 38.737ZM34.2582 41.9461H32.2425V39.8102H34.2582V41.9461ZM39.2056 28.8353H36.8322C36.3389 28.8353 35.9379 29.2364 35.9379 29.7296V32.2232C35.9379 32.7165 36.3389 33.1175 36.8322 33.1175H39.2056C39.6988 33.1175 40.0999 32.7165 40.0999 32.2232V29.7296C40.0999 29.2364 39.6983 28.8353 39.2056 28.8353ZM39.0267 32.0444H37.011V29.9084H39.0267V32.0444ZM39.2056 33.7862H36.8322C36.3389 33.7862 35.9379 34.1872 35.9379 34.6804V42.125C35.9379 42.6182 36.3389 43.0193 36.8322 43.0193H39.2056C39.6988 43.0193 40.0999 42.6182 40.0999 42.125V34.6804C40.0999 34.1872 39.6983 33.7862 39.2056 33.7862ZM39.0267 41.9461H37.011V34.8593H39.0267V41.9461ZM6.65447 35.422C7.63055 35.422 8.42432 34.6282 8.42432 33.6521C8.42432 32.6765 7.63055 31.8823 6.65447 31.8823C5.67839 31.8823 4.88461 32.6761 4.88461 33.6521C4.88461 34.6277 5.67839 35.422 6.65447 35.422ZM12.5696 32.5622L5.64932 41.2396C5.54338 41.3726 5.38719 41.4416 5.22952 41.4416C5.11225 41.4416 4.994 41.4031 4.89545 41.3243C4.66387 41.1395 4.62594 40.802 4.81071 40.5704L11.731 31.8936C11.9157 31.662 12.2533 31.6241 12.4848 31.8089C12.7164 31.9931 12.7544 32.3307 12.5696 32.5622ZM10.7258 37.7112C9.74974 37.7112 8.95597 38.5049 8.95597 39.481C8.95597 40.4571 9.74974 41.2509 10.7258 41.2509C11.7019 41.2509 12.4957 40.4571 12.4957 39.481C12.4957 38.5049 11.7019 37.7112 10.7258 37.7112Z" fill="#2D68FF" stroke="#2D68FF" stroke-width="0.2"></path>
                            </svg>