<svg width="44" height="44" viewBox="0 0 44 44" fill="none" xmlns="http://www.w3.org/2000/svg">
<path d="M21.8801 37.07C20.8501 37.09 19.8201 36.91 18.8601 36.54C18.6409 36.4488 18.4665 36.2747 18.3747 36.0557C18.283 35.8367 18.2813 35.5903 18.3701 35.37C18.5601 34.91 19.0801 34.7 19.5401 34.88C21.0601 35.4 22.7101 35.4 24.2201 34.88C24.6801 34.69 25.2001 34.91 25.3901 35.37C25.5801 35.83 25.3601 36.35 24.9001 36.54C23.9401 36.91 22.9101 37.08 21.8801 37.07ZM16.9601 28.58C16.7841 28.58 16.6099 28.5454 16.4473 28.478C16.2847 28.4107 16.137 28.312 16.0126 28.1875C15.8882 28.0631 15.7895 27.9154 15.7221 27.7528C15.6548 27.5902 15.6201 27.416 15.6201 27.24C15.6201 27.0641 15.6548 26.8898 15.7221 26.7272C15.7895 26.5647 15.8882 26.4169 16.0126 26.2925C16.137 26.1681 16.2847 26.0694 16.4473 26.002C16.6099 25.9347 16.7841 25.9 16.9601 25.9C17.3155 25.9 17.6563 26.0412 17.9076 26.2925C18.1589 26.5438 18.3001 26.8846 18.3001 27.24C18.3001 27.5954 18.1589 27.9362 17.9076 28.1875C17.6563 28.4388 17.3155 28.58 16.9601 28.58ZM26.7901 28.58C26.6141 28.58 26.4399 28.5454 26.2773 28.478C26.1147 28.4107 25.967 28.312 25.8426 28.1875C25.7182 28.0631 25.6195 27.9154 25.5521 27.7528C25.4848 27.5902 25.4501 27.416 25.4501 27.24C25.4501 27.0641 25.4848 26.8898 25.5521 26.7272C25.6195 26.5647 25.7182 26.4169 25.8426 26.2925C25.967 26.1681 26.1147 26.0694 26.2773 26.002C26.4399 25.9347 26.6141 25.9 26.7901 25.9C27.1455 25.9 27.4863 26.0412 27.7376 26.2925C27.9889 26.5438 28.1301 26.8846 28.1301 27.24C28.1301 27.5954 27.9889 27.9362 27.7376 28.1875C27.4863 28.4388 27.1455 28.58 26.7901 28.58Z" fill="#2D68FF"/>
<path d="M21.8799 19.64C19.4099 19.64 17.4099 17.64 17.4099 15.17C17.4099 12.7 19.4099 10.7 21.8799 10.7C24.3499 10.7 26.3499 12.7 26.3499 15.17C26.3499 17.64 24.3499 19.64 21.8799 19.64Z" fill="#2D68FF"/>
<path d="M37.4401 16.01L38.9401 16.14C39.4201 16.18 39.7801 16.6 39.7501 17.08V21.55C39.7701 21.95 39.5201 22.32 39.1301 22.44C38.8601 22.48 38.5901 22.48 38.3301 22.44C37.9101 22.36 37.4901 22.32 37.0701 22.31C37.7201 23.53 37.9701 24.92 37.7901 26.3C37.6342 27.1002 37.316 27.86 36.8551 28.5325C36.3941 29.205 35.8003 29.7759 35.1101 30.21C34.6401 32.46 32.0501 43 22.1201 43H21.6501C11.7101 43 9.14012 32.46 8.69012 30.21C7.99773 29.7785 7.40217 29.2084 6.94093 28.5355C6.47969 27.8625 6.16277 27.1014 6.01012 26.3C5.83012 24.93 6.08012 23.53 6.73012 22.31H5.49012C5.22012 22.35 4.95012 22.35 4.69012 22.31C4.49103 22.2622 4.31417 22.148 4.18872 21.9862C4.06328 21.8244 3.99675 21.6247 4.00012 21.42V17.08C4.00012 16.62 4.35012 16.23 4.81012 16.19L6.34012 15.95C7.42012 15.4 7.52012 14.96 7.61012 13.84C7.7924 10.9342 9.05517 8.20181 11.1501 6.17999C11.4001 5.94999 11.6601 5.71998 11.9301 5.48998L12.1901 5.26999C12.1901 5.26999 12.2501 5.22999 12.2701 5.19999H12.3201C12.6201 4.94999 12.9401 4.71999 13.2801 4.49999C13.6701 4.24999 14.8701 3.55999 15.5701 3.17999V5.23998C15.0201 5.54998 14.4701 5.86999 14.2701 6.00999C13.0523 6.81968 11.9973 7.85089 11.1601 9.04999C10.1231 10.5246 9.50459 12.2523 9.37012 14.05C9.45012 15.66 8.50012 17.13 7.00012 17.72C6.90012 17.76 6.80012 17.79 6.69012 17.8L5.80012 17.88V20.56C7.35012 20.41 8.91012 20.56 10.4001 20.98C13.8898 22.1805 17.5728 22.7198 21.2601 22.57H22.6201C26.2901 22.73 29.9501 22.18 33.4101 20.94C34.8901 20.5 36.4401 20.34 37.9801 20.48V17.8L37.0901 17.72C36.9801 17.72 36.8801 17.68 36.7801 17.64C36.0576 17.3551 35.4414 16.8528 35.0169 16.2025C34.5923 15.5522 34.3803 14.7861 34.4101 14.01C33.9201 7.95999 30.0601 5.77999 26.6201 4.67999L26.8601 9.03999H25.0701L24.6701 1.88999H19.2201L18.7701 9.03999H16.9801L17.4301 0.999985C17.4301 0.509985 17.8301 0.109985 18.3201 0.109985H25.4701C25.9301 0.109985 26.3101 0.449985 26.3601 0.909985L26.4601 2.79999H26.6301C28.8201 3.47999 35.5101 5.53999 36.1801 13.93C36.2801 15.03 36.3701 15.48 37.4501 16.03L37.4401 16.01ZM33.8601 28.78C34.3833 28.4798 34.8372 28.0725 35.1922 27.5849C35.5472 27.0972 35.7952 26.5401 35.9201 25.95C36.0501 24.69 35.7401 23.42 35.0301 22.37C34.6801 22.44 34.3301 22.53 33.9801 22.65C30.3301 23.95 26.4601 24.54 22.5801 24.37H20.7901C17.0501 24.47 13.3301 23.88 9.80012 22.64C9.44012 22.52 9.08012 22.43 8.71012 22.37C7.998 23.4199 7.68254 24.6888 7.82012 25.95C7.94319 26.5538 8.19316 27.1246 8.55347 27.6246C8.91378 28.1245 9.37621 28.5422 9.91012 28.85C10.1701 28.98 10.3501 29.23 10.3901 29.52C10.7501 31.59 11.4601 33.59 12.4701 35.44C14.6101 39.23 17.6901 41.16 21.6501 41.16H22.1201C31.6001 41.16 33.3301 29.6 33.3301 29.49C33.3701 29.18 33.5701 28.92 33.8501 28.79L33.8601 28.78Z" fill="#2D68FF"/>
</svg>
